<?xml version="1.0" encoding="utf-8"?>
<!-- Generator: Adobe Illustrator 16.0.0, SVG Export Plug-In . SVG Version: 6.00 Build 0)  -->
<!DOCTYPE svg PUBLIC "-//W3C//DTD SVG 1.1//EN" "http://www.w3.org/Graphics/SVG/1.1/DTD/svg11.dtd">
<svg version="1.1" id="Layer_1" xmlns="http://www.w3.org/2000/svg" xmlns:xlink="http://www.w3.org/1999/xlink" x="0px" y="0px"
	 width="310.833px" height="386.586px" viewBox="0 0 310.833 386.586" enable-background="new 0 0 310.833 386.586"
	 xml:space="preserve">
<g id="change1">
	<path fill-rule="evenodd" clip-rule="evenodd" fill="#A67C52" d="M310.833,142.952c-0.316-0.37-0.221-0.828-0.234-1.25
		c-0.209-6.393-2.475-12.041-6.342-17.055c-2.998-3.888-6.834-6.666-11.572-8.099c-3.18-0.96-6.42-1.237-9.732-0.971
		c-5.135,0.41-10.01,1.849-14.822,3.562c-3.461,1.233-6.896,2.542-10.361,3.764c-3.436,1.211-6.979,2.008-10.582,2.555
		c-4.24,0.644-8.5,0.777-12.777,0.684c-2.77-0.059-5.523-0.333-8.271-0.673c-6.809-0.841-13.441-2.446-19.951-4.586
		c-0.861-0.283-1.715-0.599-2.568-0.911c-0.254-0.092-0.498-0.218-0.84-0.369c0.232-0.287,0.404-0.537,0.613-0.752
		c4.893-5.085,8.906-10.789,12.027-17.118c2.939-5.961,4.973-12.216,6.137-18.762c0.936-5.24,1.35-10.521,1.08-15.831
		c-0.918-18.091-7.59-33.713-20.328-46.646c-8.184-8.308-17.922-14.087-29.083-17.467c-3.561-1.078-7.188-1.853-10.882-2.316
		c-1.845-0.232-3.69-0.438-5.552-0.476c-0.423-0.008-0.878,0.057-1.255-0.237c-1.582,0-3.167,0-4.75,0
		c-0.415,0.309-0.908,0.242-1.368,0.246c-2.062,0.015-4.105,0.271-6.14,0.557c-3.33,0.466-6.614,1.17-9.836,2.139
		c-10.885,3.271-20.434,8.828-28.568,16.772c-9.703,9.476-16.09,20.849-19.268,34.023c-0.751,3.115-1.314,6.274-1.534,9.477
		c-0.166,2.406-0.393,4.819-0.355,7.226c0.303,18.892,6.983,35.17,20.138,48.767c0.219,0.227,0.441,0.453,0.65,0.688
		c0.046,0.052,0.049,0.144,0.076,0.233c-0.166,0.378-0.574,0.385-0.886,0.504c-2.956,1.125-5.978,2.055-9.04,2.842
		c-3.178,0.817-6.397,1.451-9.651,1.883c-2.114,0.282-4.238,0.531-6.379,0.574c-1.579,0.031-3.162,0.162-4.742,0.127
		c-2.65-0.054-5.29-0.241-7.926-0.56c-5.37-0.649-10.514-2.151-15.585-3.967c-3.422-1.225-6.867-2.388-10.316-3.53
		c-3.156-1.043-6.395-1.794-9.689-2.235c-3.948-0.53-7.891-0.527-11.776,0.502c-5.506,1.459-9.847,4.587-13.093,9.24
		c-2.558,3.666-4.078,7.75-4.755,12.156c-0.114,0.743-0.171,1.493-0.271,2.236c-0.055,0.42-0.021,0.889-0.472,1.151
		c0,1.029,0,2.058,0,3.087c0.512,0.335,0.417,0.888,0.496,1.379c0.208,1.326,0.369,2.665,0.648,3.977
		c0.721,3.37,2.192,6.42,4.072,9.29c2.699,4.113,6.067,7.595,9.95,10.592c3.901,3.011,8.158,5.427,12.621,7.5
		c5.1,2.37,10.381,4.26,15.749,5.907c3.17,0.972,6.362,1.891,9.57,2.734c2.753,0.724,5.571,1.135,8.383,1.576
		c4.019,0.628,8.059,1.15,12.018,2.125c1.653,0.408,3.273,0.905,4.853,1.541c5.235,2.108,8.465,5.923,9.785,11.397
		c0.58,2.398,0.84,4.834,0.902,7.289c0.089,3.52,0.1,7.039-0.122,10.56c-0.138,2.17-0.195,4.349-0.339,6.52
		c-0.173,2.565-0.393,5.126-0.606,7.689c-0.174,2.089-0.355,4.176-0.558,6.262c-0.25,2.561-0.509,5.118-0.794,7.674
		c-0.257,2.319-0.537,4.634-0.834,6.948c-0.412,3.178-0.808,6.356-1.285,9.521c-0.561,3.718-1.241,7.407-2.056,11.076
		c-1.624,7.284-3.883,14.346-7.194,21.052c-2.637,5.341-5.875,10.299-9.451,15.055c-3.447,4.584-6.875,9.187-10.227,13.841
		c-3.306,4.597-6.316,9.387-8.915,14.423c-1.818,3.523-3.387,7.146-4.455,10.975c-0.767,2.753-1.271,5.55-1.309,8.414
		c-0.095,6.725,2.354,12.34,7.395,16.809c2.661,2.356,5.695,4.117,8.938,5.538c4.181,1.83,8.541,3.097,13.012,3.967
		c1.357,0.262,2.742,0.374,4.11,0.571c0.39,0.054,0.77,0.163,1.154,0.246c1.187,0,2.374,0,3.561,0c0.81-0.371,1.699-0.36,2.553-0.46
		c4.002-0.475,7.809-1.61,11.461-3.282c4.425-2.025,8.392-4.752,12.055-7.931c4.444-3.855,8.332-8.224,11.904-12.885
		c4.503-5.888,8.44-12.147,12.107-18.583c4.82-8.458,9.147-17.17,13.293-25.977c3.82-8.121,7.603-16.264,11.407-24.396
		c0.179-0.382,0.299-0.81,0.637-1.099c0.439,0.137,0.471,0.543,0.615,0.845c1.23,2.569,2.419,5.156,3.668,7.715
		c6.617,13.558,13.869,26.76,22.135,39.39c4.729,7.224,9.776,14.215,15.386,20.785c4.17,4.883,8.611,9.501,13.556,13.61
		c3.756,3.122,7.742,5.894,12.133,8.06c3.137,1.544,6.395,2.744,9.846,3.347c2.533,0.441,5.078,0.677,7.672,0.436
		c2.898-0.269,5.68-0.978,8.461-1.753c3.662-1.02,7.227-2.31,10.621-4.038c2.73-1.387,5.275-3.043,7.531-5.124
		c3.164-2.923,5.346-6.436,6.326-10.651c0.531-2.289,0.666-4.604,0.467-6.953c-0.447-5.172-2.172-9.943-4.432-14.557
		c-2.283-4.662-5.059-9.038-8.023-13.299c-3.324-4.773-6.889-9.369-10.449-13.971c-2.615-3.381-5.209-6.776-7.582-10.334
		c-5.92-8.869-10.184-18.469-12.852-28.787c-1.328-5.138-2.371-10.329-3.111-15.578c-0.422-3.016-0.783-6.039-1.174-9.058
		c-0.359-2.786-0.738-5.566-1.078-8.354c-0.295-2.436-0.561-4.875-0.814-7.313c-0.221-2.081-0.418-4.17-0.607-6.259
		c-0.111-1.22-0.203-2.444-0.277-3.669c-0.287-4.861-0.426-9.725-0.238-14.595c0.098-2.525,0.211-5.059,0.648-7.561
		c0.303-1.72,0.74-3.396,1.428-5.006c1.254-2.932,3.23-5.232,5.959-6.886c2.08-1.261,4.344-2.08,6.678-2.708
		c2.33-0.627,4.701-1.062,7.082-1.45c3.781-0.615,7.564-1.23,11.344-1.868c2.93-0.493,5.775-1.322,8.617-2.167
		c5.568-1.655,11.096-3.438,16.459-5.694c4.896-2.06,9.604-4.471,13.957-7.543c4.006-2.828,7.566-6.118,10.48-10.076
		c1.74-2.366,3.289-4.845,4.295-7.626c0.811-2.244,1.391-4.534,1.377-6.944c-0.002-0.5-0.084-1.034,0.24-1.489
		C310.833,144.218,310.833,143.585,310.833,142.952z"/>
</g>
<g id="change2">
	<circle fill-rule="evenodd" clip-rule="evenodd" fill="#FFFFFF" cx="129.54" cy="59.861" r="9.546"/>
	<circle fill-rule="evenodd" clip-rule="evenodd" fill="#FFFFFF" cx="170.093" cy="59.861" r="9.546"/>
	<circle fill-rule="evenodd" clip-rule="evenodd" fill="#FFFFFF" cx="151.675" cy="161.305" r="9.546"/>
	<circle fill-rule="evenodd" clip-rule="evenodd" fill="#FFFFFF" cx="151.675" cy="202.119" r="9.546"/>
	<circle fill-rule="evenodd" clip-rule="evenodd" fill="#FFFFFF" cx="151.675" cy="242.932" r="9.546"/>
	<path fill="#FFFFFF" d="M151.672,102.172c-14.38,0-24.775-11.278-25.215-11.763c-1.544-1.703-1.416-4.334,0.287-5.879
		c1.7-1.542,4.325-1.417,5.871,0.278l0,0c0.084,0.091,8.42,9.039,19.061,9.039c0.116,0,0.231-0.001,0.348-0.003
		c6.519-0.12,12.782-3.652,18.616-10.5c1.492-1.75,4.118-1.958,5.867-0.469c1.75,1.491,1.959,4.118,0.469,5.867
		c-7.471,8.769-15.842,13.286-24.878,13.426C151.955,102.171,151.812,102.172,151.672,102.172z"/>
</g>
<g id="change3">
	<path fill="#E05B47" d="M110.076,360.784c-0.254,0-0.512-0.023-0.771-0.072c-42.938-8.044-48.356-29.915-48.565-30.842
		c-0.507-2.242,0.899-4.471,3.142-4.978c2.224-0.499,4.433,0.876,4.964,3.086c0.116,0.418,5.24,17.666,41.993,24.552
		c2.259,0.423,3.748,2.598,3.324,4.857C113.787,359.388,112.039,360.784,110.076,360.784z"/>
	<path fill="#E05B47" d="M119.999,341.648c-0.254,0-0.512-0.023-0.771-0.072c-42.938-8.044-48.356-29.914-48.565-30.841
		c-0.507-2.242,0.899-4.471,3.142-4.978c2.224-0.496,4.434,0.877,4.964,3.086c0.112,0.403,5.225,17.662,41.993,24.551
		c2.259,0.423,3.748,2.598,3.324,4.857C123.71,340.252,121.962,341.648,119.999,341.648z"/>
	<path fill="#E05B47" d="M203.688,360.784c-1.963,0-3.711-1.396-4.086-3.396c-0.423-2.26,1.065-4.435,3.324-4.857
		c37.016-6.935,41.947-24.383,41.993-24.558c0.508-2.242,2.718-3.617,4.971-3.111c2.241,0.508,3.641,2.767,3.134,5.009
		c-0.21,0.927-5.629,22.798-48.564,30.842C204.201,360.761,203.943,360.784,203.688,360.784z"/>
	<path fill="#E05B47" d="M193.765,341.666c-1.963,0-3.711-1.396-4.086-3.396c-0.423-2.26,1.065-4.435,3.324-4.857
		c37.017-6.935,41.949-24.382,41.995-24.557c0.507-2.243,2.724-3.616,4.971-3.111c2.241,0.508,3.641,2.767,3.134,5.009
		c-0.21,0.927-5.629,22.797-48.566,30.841C194.277,341.643,194.019,341.666,193.765,341.666z"/>
</g>
</svg>
