<?xml version="1.0" encoding="utf-8"?><!DOCTYPE svg PUBLIC "-//W3C//DTD SVG 1.1//EN" "http://www.w3.org/Graphics/SVG/1.1/DTD/svg11.dtd">
<svg version="1.1" id="Layer_1" xmlns="http://www.w3.org/2000/svg" xmlns:xlink="http://www.w3.org/1999/xlink" x="0px" y="0px" viewBox="0 0 491.9 207.8" enable-background="new 0 0 491.9 207.8" xml:space="preserve">
<g>
	<g>
		<g id="change1_1"><polygon fill="#FFFFFF" points="346,113.5 272.2,0 214.3,78.9 249.9,115.5 287.2,94.6 341.4,119.9 354,125.8 		"></polygon></g>
		<g id="change2_1"><polygon fill="#E33753" points="362.6,139.1 336.3,126.8 287.6,104 248.4,126 209.3,85.8 183.3,121.3 181.6,123.6 178.3,128.1 
			120.4,207.1 119.9,207.8 276.9,207.8 407.3,207.8 		"></polygon></g>
		<g id="change3_1"><polygon fill="#AA2A3F" points="354,125.8 341.4,119.9 287.2,94.6 249.9,115.5 214.3,78.9 209.3,85.8 248.4,126 287.6,104 
			336.3,126.8 362.6,139.1 		"></polygon></g>
		<g id="change4_1"><polygon opacity="0.13" fill="#3A0D15" points="272.2,0 319.9,207.8 407.3,207.8 		"></polygon></g>
		<g id="change4_2"><polygon opacity="0.13" fill="#3A0D15" points="176.4,130.6 194.1,207.8 226.6,207.8 		"></polygon></g>
	</g>
	<g>
		<g id="change3_2"><polygon fill="#AA2A3F" points="144.5,107.4 178.3,128.8 181.6,124.3 176.4,117.7 144.4,97.5 95.8,128.7 80.4,98.2 74.8,105.8 
			92.6,140.8 		"></polygon></g>
		<g id="change1_2"><polygon fill="#FFFFFF" points="144.4,97.5 176.4,117.7 119.9,44.3 80.4,98.2 95.8,128.7 		"></polygon></g>
		<g id="change2_2"><polygon fill="#E33753" points="144.5,107.4 92.6,140.8 74.8,105.8 0,207.8 120.4,207.8 178.3,128.8 		"></polygon></g>
		<g id="change4_3"><polygon opacity="0.13" fill="#3A0D15" points="119.9,44.3 181.6,124.3 141.2,178.6 		"></polygon></g>
	</g>
	<g>
		<g id="change1_3"><polygon fill="#FFFFFF" points="420.4,97.7 390.9,52.4 363.8,89.3 390.9,112.9 		"></polygon></g>
		<g id="change3_3"><polygon fill="#AA2A3F" points="425,104.8 420.4,97.7 390.9,112.9 363.8,89.3 358.9,96 389.6,123 		"></polygon></g>
		<g id="change2_3"><polygon fill="#E33753" points="425,104.8 389.6,123 358.9,96 346,113.5 354,125.8 362.6,139.1 407.3,207.8 491.9,207.8 		"></polygon></g>
		<g id="change4_4"><polygon opacity="0.13" fill="#3A0D15" points="390.9,52.4 441.4,207.8 491.9,207.8 		"></polygon></g>
	</g>
</g>
</svg>