<?xml version="1.0" standalone="no"?>
<!DOCTYPE svg PUBLIC "-//W3C//DTD SVG 20010904//EN"
 "http://www.w3.org/TR/2001/REC-SVG-20010904/DTD/svg10.dtd">
<svg version="1.0" xmlns="http://www.w3.org/2000/svg"
 width="200.000000pt" height="108.000000pt" viewBox="0 0 200.000000 108.000000"
 preserveAspectRatio="xMidYMid meet">
<metadata>
Created by potrace 1.15, written by Peter Selinger 2001-2017
</metadata>
<g transform="translate(0.000000,108.000000) scale(0.100000,-0.100000)"
fill="#000000" stroke="none">
<path d="M880 1057 c-59 -28 -132 -102 -164 -164 -39 -78 -49 -163 -44 -367 6
-220 27 -314 92 -410 61 -89 117 -116 245 -116 66 1 112 6 149 19 57 20 152
80 152 96 0 6 -14 19 -31 29 -23 14 -29 23 -25 40 3 11 1 28 -4 36 -8 12 -13
11 -32 -7 -34 -32 -107 -62 -171 -69 -49 -6 -61 -3 -100 19 -103 61 -154 225
-137 442 9 113 15 141 42 205 27 64 54 88 116 106 52 15 54 15 106 -10 58 -29
74 -53 83 -128 3 -26 9 -48 13 -48 18 0 40 40 42 76 1 37 1 37 5 7 3 -23 15
-41 37 -58 18 -14 36 -25 41 -25 15 0 -5 124 -29 176 -37 80 -72 120 -129 149
-69 34 -189 35 -257 2z"/>
<path d="M1580 1059 c-86 -38 -165 -132 -195 -230 -22 -73 -30 -279 -16 -412
17 -171 49 -261 119 -339 56 -62 99 -78 217 -78 109 0 176 20 256 76 46 32 49
48 11 68 -24 13 -28 19 -24 50 3 27 1 36 -11 36 -8 0 -17 -6 -20 -13 -9 -23
-115 -67 -177 -74 -53 -5 -63 -3 -103 22 -81 52 -124 153 -134 315 -10 171 28
345 89 401 15 15 51 32 78 39 46 11 54 10 98 -12 55 -29 82 -73 82 -135 0 -24
3 -43 7 -43 4 0 19 11 34 26 l26 25 32 -27 c40 -33 55 -20 45 41 -18 114 -85
220 -164 260 -65 33 -182 35 -250 4z"/>
<path d="M7 1063 c-4 -3 -7 -242 -7 -530 0 -439 2 -523 14 -523 31 0 46 47 48
152 l2 103 3 -95 c4 -94 4 -95 40 -132 21 -21 41 -38 45 -38 5 0 7 116 5 259
l-3 258 138 9 138 9 4 -40 c3 -22 8 -105 11 -185 12 -311 20 -343 66 -265 l21
35 30 -25 c16 -14 34 -25 39 -25 5 0 7 32 4 73 -9 124 -25 621 -25 775 0 81
-3 157 -6 170 -8 29 -28 28 -49 -4 l-17 -26 -28 27 c-16 15 -33 24 -39 21 -7
-5 -11 -71 -11 -196 l0 -188 -97 -6 c-54 -4 -118 -8 -142 -10 l-44 -4 7 113
c9 134 -1 285 -19 285 -6 0 -22 -11 -35 -25 l-24 -26 -24 31 c-24 30 -33 35
-45 23z"/>
</g>
</svg>
