<svg xmlns="http://www.w3.org/2000/svg" xmlns:xlink="http://www.w3.org/1999/xlink" viewBox="0 0 1000 1028.12"><defs><style>.cls-1{fill:none;}.cls-2{clip-path:url(#clip-path);}.cls-3{fill:#bdb401;}.cls-4{fill:#caf2fb;}.cls-18,.cls-5{fill:#fefefe;}.cls-6{fill:#03c3eb;}.cls-7{fill:#0096ba;}.cls-8{fill:#eebf70;}.cls-9{fill:#ffd34e;}.cls-10{fill:#e39279;}.cls-11{fill:#c56520;}.cls-12{fill:#854415;}.cls-13{fill:#d4aa64;}.cls-14{fill:#a36857;}.cls-15{fill:#00627a;}.cls-16,.cls-17{fill:#e5bd46;}.cls-17,.cls-18{opacity:0.81;}.cls-19{fill:#161616;}</style><clipPath id="clip-path"><path class="cls-1" d="M973,337.77a497.71,497.71,0,0,0-74.9-140A498.62,498.62,0,0,0,783.2,88a499.9,499.9,0,0,0-467.83-52.7A504.09,504.09,0,0,0,243.19,71a509.36,509.36,0,0,0-65,46.46A498.26,498.26,0,0,0,0,499.7Q0,524.89,2.51,550A492.39,492.39,0,0,0,45.25,707.91c21.85,48.17,51.89,92.58,87.69,131.47a500.84,500.84,0,0,0,274.94,152.1A500,500,0,0,0,576,994.16c53.41-7.91,105.28-25.15,153.27-49.8C823.32,896,900.87,816.8,947.93,722.19a498.51,498.51,0,0,0,38.53-106.27A503.69,503.69,0,0,0,1000,500v0A503.34,503.34,0,0,0,973,337.77Z"/></clipPath></defs><title>VR-SCreen-Monitor</title><g id="Layer_2" data-name="Layer 2"><g id="VR_Screen" data-name="VR Screen"><g class="cls-2"><path class="cls-3" d="M210,949.32a7.25,7.25,0,0,0,8.44-3.93,7.72,7.72,0,0,0,3.28,1.9,7.82,7.82,0,0,0,5.65-.68,8.84,8.84,0,0,0,4.64,3.2,8.45,8.45,0,0,0,4.54,0,9.26,9.26,0,0,0,2-.81,8.52,8.52,0,0,0,3.94,2.4,8.63,8.63,0,0,0,6.58-.86,9.53,9.53,0,0,0,2.1-1.72,8.61,8.61,0,0,0,1.19.42,9,9,0,0,0,2.07.31A10.12,10.12,0,0,0,255,951a9.9,9.9,0,0,0,3.51,3.52,9.71,9.71,0,0,0,4.94,1.33c2.34,0,5.41-.94,6.93-2.86.63-.8,1.27-1.6,1.89-2.42A8.73,8.73,0,0,0,277.9,948a9.05,9.05,0,0,0,2.55-6.15c1-9.23,2-18.46,2.8-27.7a7.9,7.9,0,0,0-1.1-4.07,8.12,8.12,0,0,0-4.81-3.71,7.72,7.72,0,0,0-2-.27q.09-.86.19-1.72c.49-4.57.88-9.14,1.1-13.73q.2-4.48.11-9a72.2,72.2,0,0,0-1.35-11.06c-.54-3-3.43-5.45-6.23-6.21-.25-.07-.49-.12-.74-.17a47.68,47.68,0,0,0-1-6.39,7.83,7.83,0,0,0-5.5-5.5,8.46,8.46,0,0,0-6.15.8,8.55,8.55,0,0,0-4.24-2.75,8.66,8.66,0,0,0-4.8.13c-.16-.27-.33-.55-.52-.84a8.47,8.47,0,0,0-8.87-4l.19-1.18c.4-2.55,1.14-5.16,1-7.74a5.83,5.83,0,0,0-.26-1.41q.26-2.53.51-5.06c.23-2.27-2.06-4.17-4.17-4.17-2.44,0-3.94,1.91-4.17,4.17q-.16,1.62-.33,3.23a4.18,4.18,0,0,0-1,2l-.34,1.5a5.81,5.81,0,0,0-1.63-.75,5.92,5.92,0,0,0-3.37.08,6.25,6.25,0,0,0-1.05-.39,6.88,6.88,0,0,0-8.35,4.73,53.07,53.07,0,0,0-1.38,7.11c-.28,1.7-.6,3.39-.84,5.1q-.76,5.26-1.5,10.54c-.54,3.8-.86,7.63-1.27,11.44-.28,2.75-.52,5.47-.7,8.22-.22,3.56-.45,7.12-.66,10.68-.24,3.78-.24,7.57-.36,11.34-.07,2.48-.11,5-.14,7.43q-1.18,12.32-2.38,24.65c-.17,1.75-.33,3.5-.46,5.25q0,.2,0,.41a7.26,7.26,0,0,0,5.3,6.54Z"/><path class="cls-3" d="M210.48,861.81a7.89,7.89,0,0,0,.84,4.35,4.11,4.11,0,0,0,4,2q.25,1.65.5,3.31c.25,1.62,2.26,2.49,3.69,2.1a3.08,3.08,0,0,0,2.1-3.69c-.41-2.73-.8-5.47-1.2-8.21-.23-2-.45-3.92-.59-5.91-.06-.83-.07-1.66-.07-2.49q.09-.89.17-1.79,1.12-7.6,2.39-15.17c.62-3.76,1.26-7.5,1.74-11.28l.09-.72.06-.26,1.15-5.63c.29-1.43.56-2.86.77-4.31a10.65,10.65,0,0,0,.31-2.92,4.78,4.78,0,0,0-.43-1.62l.55-4.15,1.37.13c1.2.13,2.39.25,3.59.4,2.65.45,5.35,1.19,8,1.13a6.79,6.79,0,0,0,1.81-13.34,28.54,28.54,0,0,0-6.9-.62c-1.81,0-3.63.18-5.44.33a52.08,52.08,0,0,0-6,.85,8.31,8.31,0,0,0-5.21,3.43,9.11,9.11,0,0,0-1.14,4.49c-.57,3.66-1.37,7.28-2,10.93a4.8,4.8,0,0,0-2.31,3,38,38,0,0,0-.63,6.78q-.1,2.68-.18,5.37l-.06.69q-.37,4.53-.74,9.08-.6,7.71-1.31,15.41c-.2,1.58-.37,3.15-.49,4.73,0,.09,0,.19,0,.28a4.68,4.68,0,0,0,1.49,3.28Zm9.86-.86,0,.23,0-.23Z"/><path class="cls-3" d="M222.15,802.74c4.06.23,8.11.63,12.15,1.12,3.71.54,7.41,1.11,11.13,1.6l-.88-.11c3.61.5,7.17,1.2,10.74,1.92,1.68.33,3.37.61,5.05,1s3.24.82,4.86,1.25c3.31.89,6.65,1.77,10,2.37a62.69,62.69,0,0,0,6.68.76c.64,0,1.29.09,1.93.17a7.32,7.32,0,0,0,6.12-2.27,7.1,7.1,0,0,0,1.09-8.46,7.75,7.75,0,0,0-4.83-3.61,15.6,15.6,0,0,0-2.48-.32c-1.5-.25-3-.54-4.51-.76-2.09-.31-4.2-.52-6.3-.78-2.4-.36-4.75-.83-7.13-1.35-1.92-.42-3.92-.56-5.87-.8l-3.65-.45c-2.81-.39-5.61-.76-8.45-1-2.67-.24-5.36-.27-8-.49s-5.36-.29-8.06-.4c-3.2-.12-6.38-.4-9.58-.58a5.62,5.62,0,0,0,0,11.25Zm12.63,1.18.51.06-.51-.06Zm10.82,1.56.64.08-.64-.08Z"/><path class="cls-3" d="M218,836.06a9,9,0,0,0,3.92,7.22,10.45,10.45,0,0,0,4.56,5.75,9.81,9.81,0,0,0,4.47,1.32,10,10,0,0,0,.13,1.83c.12.89.24,1.79.36,2.69a35.46,35.46,0,0,0,1.53,3.47c1.51,3.12,5.36,5,8.7,5a10.34,10.34,0,0,0,2.3-.27,9.91,9.91,0,0,0,1.8.69,10.23,10.23,0,0,0,5.36,0,11.08,11.08,0,0,0,2.59-1.12l.51.32a8.82,8.82,0,0,0,7.23.77A7.76,7.76,0,0,0,266,867.1l.29.07c-.13,6.62-.26,13.23-.21,19.86,0,3.29,0,6.58.08,9.86l.09,7.37c0,.9.06,1.82.1,2.74q-.06,2.27-.06,4.53a6.88,6.88,0,0,0,5,6.58c3.43.94,7.59-1.13,8.39-4.77a30.49,30.49,0,0,0,.27-7l-.06-5.65c0-2.45-.06-4.89-.07-7.34q0-1.69,0-3.37c.28-5.67.92-11.31,1.59-17,.72-6,1.53-12,2.29-18,.81-6.3,1.39-12.62,2-18.94.67-4.41,1.46-8.77,2.5-13.11,1.38-5.76,2.83-11.49,4.32-17.2a4.78,4.78,0,1,0-9.21-2.54q-1.23,4.66-2.43,9.33a9.09,9.09,0,0,0-2.1-3.87,12.81,12.81,0,0,0-3.54-3.35,18.2,18.2,0,0,0-3.22-1.43c-1.25-.4-2.51-.74-3.77-1.12s-2.43-.78-3.64-1.17a50.89,50.89,0,0,0-10.72-2.1,32.34,32.34,0,0,0-4.05-.15,9.89,9.89,0,0,0-3.26-.56l-2.59.35a9.75,9.75,0,0,0-2,.79c-1.14.11-2.27.22-3.41.36a9.17,9.17,0,0,0-6,.9l-.82.17a8.69,8.69,0,0,0-3.37-.71,9.39,9.39,0,0,0-6.88,3.33,7.88,7.88,0,0,0-2,3.52,9.65,9.65,0,0,0-.06,4.71,9.83,9.83,0,0,0,1.43,3l-.11.85c-.32,2.15-.64,4.32-1,6.46l-.78,4.5a44.38,44.38,0,0,0-1,7.67c0,.45,0,.91.05,1.36Z"/><path class="cls-3" d="M272.61,811c.21,1,.4,2,.55,2.94.21,1.8.37,3.59.48,5.4a76.46,76.46,0,0,1-.06,7.86c-.08,2-.2,4-.31,6-.07,1.45-.18,2.89-.27,4.35a23.77,23.77,0,0,0,0,3.33,7.78,7.78,0,0,0,.91,3.39,6.39,6.39,0,0,0,3.66,2.71,5.6,5.6,0,0,0,5.53-1.46c1.92-1.88,2.71-4.61,3.58-7.09.38-1.1.74-2.24,1-3.38.65-2.61,1.18-5.24,1.72-7.89.43-2.11.95-4.21,1.53-6.29,1-2.75,1.93-5.5,2.66-8.32a5.88,5.88,0,0,0-.32-3.9q.23-.66.48-1.31.23-.48.47-1a6.76,6.76,0,0,0,1.92-4.63,6.58,6.58,0,0,0-6.53-6.52,7.24,7.24,0,0,0-6.2,3.43,14.6,14.6,0,0,0-1.32,2.79c-.43,1-.75,2.11-1.09,3.16l0,.15a5.83,5.83,0,0,0-4.42-.63,5.55,5.55,0,0,0-4.05,5.52,6.63,6.63,0,0,0,.14,1.35Z"/><path class="cls-3" d="M509,896a11.85,11.85,0,0,0,5.34,3q-.31,1.33-.61,2.66a145.58,145.58,0,0,0-2.76,23c-.4,6.75-.34,13.54-.62,20.3-.3,7.38-.49,14.79-1.2,22.15-.46,2.57-1.09,5.08-1.81,7.61a12,12,0,1,0,23.05,6.35,79.33,79.33,0,0,0,3-17.29l.4-7.79c.27-5.08.46-10.17.66-15.26.19-4.67.25-9.35.38-14,.11-4.3.47-8.57.87-12.84.66-3.74,1.4-7.43,2.32-11.12,1.13-4.52,2.33-9,3-13.65.2-1.28.37-2.56.53-3.85a9.09,9.09,0,0,0-.32-4.24,13.91,13.91,0,0,0-6.36-9,17.58,17.58,0,0,0-18.89,1.25,54.87,54.87,0,0,0-7,5.81,12.45,12.45,0,0,0-3.44,8.57A11.71,11.71,0,0,0,509,896Z"/><path class="cls-4" d="M973,337.77a497.71,497.71,0,0,0-74.9-140A498.62,498.62,0,0,0,783.2,88a499.9,499.9,0,0,0-467.83-52.7A504.09,504.09,0,0,0,243.19,71a509.36,509.36,0,0,0-65,46.46A498.26,498.26,0,0,0,0,499.7Q0,524.89,2.51,550A492.39,492.39,0,0,0,45.25,707.91c21.85,48.17,51.89,92.58,87.69,131.47a500.84,500.84,0,0,0,274.94,152.1A500,500,0,0,0,576,994.16c53.41-7.91,105.28-25.15,153.27-49.8C823.32,896,900.87,816.8,947.93,722.19a498.51,498.51,0,0,0,38.53-106.27A503.69,503.69,0,0,0,1000,500v0A503.34,503.34,0,0,0,973,337.77Z"/><path class="cls-4" d="M102,601.12a1.7,1.7,0,0,0,.84,1.45,1.68,1.68,0,0,0,2-.26,6.77,6.77,0,0,0,1.27-1.89,12.66,12.66,0,0,0,.59-2.7c.1-.94.15-1.89.19-2.84,0-1.16.11-2.31.18-3.48.17-3.08.21-6.18.19-9.27,0-3.55-.05-7.1-.08-10.65v-.07q.21-2.35.42-4.71l.47-5.31c.05-.53.08-1.07.15-1.6,1.11-9.21,2.14-18.43,3.28-27.64.94-5.4,1.8-10.82,2.7-16.23q1.77-10.72,3.56-21.44c1.09-6.53,2.38-13,3.57-19.54a1.63,1.63,0,0,0-1.11-2,1.61,1.61,0,0,0-2,1.12c-1.15,6.25-2.4,12.47-3.43,18.73l-1.21,7.31-4.08,24.43q-.56,3.35-1.11,6.69c-.27,1.6-.4,3.23-.6,4.83l-.84,7.09c0-2,0-4.06.05-6.09,0-3.06,0-6.11.06-9.17,0-1,.07-2,.1-2.92.08-2.09.16-4.17.24-6.26.42-11.21,1.08-22.4,1.4-33.61q.22-7.7.4-15.41.09-3.78.17-7.54l.09-3.7,0-1.63q0-.2,0-.4l.63.45a2.07,2.07,0,0,0,2.51-.32,2.13,2.13,0,0,0,.61-1.47,2,2,0,0,0-.61-1.46c-.63-.5-1.26-1-1.9-1.48a10.19,10.19,0,0,0-1.84-.93,2.42,2.42,0,0,0-1.68-.22,2.34,2.34,0,0,0-1.31,1,3.47,3.47,0,0,0-.64,1.22,7.89,7.89,0,0,0-.16,1.31c0,.22,0,.44,0,.64s0,.44,0,.64c0,.73,0,1.45,0,2.18,0,1.56,0,3.12-.05,4.68q0,3.94-.11,7.87c-.09,5.78-.15,11.57-.34,17.34-.21,6-.4,12.09-.65,18.14-.27,6.32-.47,12.64-.66,19-.12,4.39-.11,8.78-.1,13.17,0,1.58,0,3.16,0,4.74,0,5.9.12,11.81.21,17.7q.08,6.21.15,12.42,0,1.11,0,2.21l0,.32c-.54,6.06-1,12.13-1.48,18.2-.08,1.21-.15,2.42-.18,3.64q0,.22,0,.45c0,1.08.06,2.15.09,3.24Z"/><path class="cls-4" d="M78.86,596.09c.09,4.23.39,8.45.32,12.69a92.17,92.17,0,0,0,.78,13q.29,2.65.53,5.31c.56,5.91,2,10.91,6.32,15.25a21.58,21.58,0,0,0,30.51,0,23.59,23.59,0,0,0,4.5-6.44,47.72,47.72,0,0,0,23.07.06c6.12-1.39,12.16-4.76,18.1-7.73,1.15.28,2.3.55,3.45.8,8.58,1.81,17.32,2.7,26,3.72,5.9.69,11.84,1,17.77,1.33,11.56,2.55,22.79,6.38,34.32,9.15,13.27,3.19,26.78,6.19,40.3,8.05,33.75,4.62,67.72,8.61,101.81,9.06,13.65.18,27.37-1,40.94-2.3,17.74-1.67,35.39-4,53-6.62,12.77-1.07,25.58-1.59,38.39-2.34,15.13-.89,30.24-1.64,45.4-2,14.5-.36,28.91-.87,43.37-2,3-.24,6-.74,9.06-1.13,7.72-1,15.57-1.77,23.2-3.15q10.89-2,21.77-4c2.41-.44,4.82-.88,7.23-1.31q4-.29,7.9-.3c.91.8,1.89,1.59,2.93,2.36,1.6,2.33,3.44,4.54,5.95,7.74,3,3.79,7.13,6.35,11.14,9,10.65,6.89,24.09,7.23,36,4.22,7.31-1.85,15.59-7.08,20.91-12.38a42.65,42.65,0,0,0,4.93-5.9,41.53,41.53,0,0,0,5.48,12.1l8,10.31a50.95,50.95,0,0,0,85.13-22.47c2.36-6.55,2.34-15,2.19-22.18-.07-3.31-.07-6.63,0-9.95.1-7.17.25-14.34.39-21.52.27-13.39.43-26.83,1.11-40.21.74-14.32,1.54-28.64,3.07-42.9,1.59-14.88,3.43-29.71,5.26-44.57.57-4.6,1.16-9.19,1.58-13.81.35-4,.65-7.9.75-11.88.17-7.49-1.19-14.88-2.19-22.27a49.31,49.31,0,0,0-2.29-10c-5.51-15.64-14.77-30.39-30-38.25-8.25-4.24-19-8.08-28.52-7.59a100,100,0,0,0-17.81,2.47,41.61,41.61,0,0,0-6.41,2.34q-5.09,2.14-10.16,4.3c-6.73,2.73-13.49,5.41-19.94,8.75-8.23,4.27-16.87,8.57-23.41,15.12-11.11-.57-22.2-1.5-33.31-2q-22.15-1.07-44.27-2.22c-28.24-1.48-56.58-1.61-84.84-2.4q-43.23-1.21-86.4-4.11c-4-.27-8.09-.69-12.12-1.12-15.34-2.3-30.64-4.76-46.05-6.67-13.86-1.72-27.8-3-41.68-4.52-14.36-1.6-28.75-2.95-43.12-4.47-13.48-1.42-26.88-1.48-40.41-1.66-28.49-.37-57-1.44-85.5-.65-13.17.36-26.33.4-39.5.67-6.73.13-13.46.6-20.19.73s-13.74-.3-20.58-.74c-2.94-.18-5.85-.43-8.79-.58-12.77-.67-25.74,7.76-28.1,20.81-1.28,7.11-2.69,14.1-3.53,21.28-1.42,12.29-2,24.77-2.87,37.11-.91,13-.46,25.94-1.1,38.91-.6,12.32-1.95,24.67-3.5,36.92a289.88,289.88,0,0,0-3,29.08c-.37,9.49-.94,18.93-1.77,28.41-.67,7.56-1.34,15.1-1.34,22.7q0,1.34,0,2.69Zm5.62-79c0,.11,0,.24-.05.35l.13-.92-.07.57Z"/><path class="cls-5" d="M973.06,819.53c-.46-4.25-.64-8.53-1.12-12.79-.36-3.24-.48-6.51-.62-9.75-.28-6.25-.46-12.48-.91-18.72-1-13.39-2.75-26.65-4.66-39.92-1.66-13-3.15-26.14-4.18-39.24-1.06-13.56-1.93-27.14-2.91-40.71-2.05-28.44-3.49-57-3.76-85.49-.26-28.11.81-56.21,1.3-84.31.25-14.47.57-28.95.83-43.42.15-8,.54-16,1-24.06,3.54-.56,7-3.21,7.73-6.82.89-4.35,2-8.65,2.83-13A79.75,79.75,0,0,0,970.38,386a87.36,87.36,0,0,0-1.27-15.69c-.29-1.57-.62-3-1-4.55-.73-1.77-1.47-3.53-2.25-5.28a10.7,10.7,0,0,0-.72-1.34c3.51-16.35,1.59-36.44-16.9-42.16-8.64-2.67-19.37-2.4-28.34-2.29-10.48.13-20.88,1.32-30.52,5.61l-.13.07a23.31,23.31,0,0,0-3.51-1.09,77.93,77.93,0,0,0-17.26-1.84c-3.42,0-6.85-.13-10.27-.29-6.28-.27-12.52-.49-18.81-.39q-4.67.07-9.33.2a39.5,39.5,0,0,0-16.86-10.17l-3.41-1c-7.5.09-15,.09-22.48.28-9.8.26-19.62.48-29.42.85-10.22.39-20.39,1.55-30.6,2.06-9.92.5-19.9.59-29.83.52a518.74,518.74,0,0,1-59.54-3.72c-22.22,2.93-44.54,5.16-66.83,7.39-12.19,1.22-24.41,2.44-36.64,2.95-15.94-2.53-32-4.5-48-6.35a357.58,357.58,0,0,0-41.76-2.12c-14.06,0-28-.52-42-1.84-13.8-1.3-27.6-3.4-41.44-4.1s-27.79-.85-41.67-.35c-11.57.41-23.07,1.41-34.53,2.88a29.88,29.88,0,0,0-7.72-1.46c-7.52-.5-15-.73-22.57-.76-6.91,0-13.86.62-20.75,1-14,.78-27.94,1.62-41.92,2-27.47.82-55.06,1-82.4,4.08a85.59,85.59,0,0,1-8.77.71,63.77,63.77,0,0,1-7.36-.39c-3.5-.63-7-1.32-10.48-2a77.29,77.29,0,0,0-8.12-1.15,71.68,71.68,0,0,0-19,1.39c-3.26.6-6.34,3.35-8,6.11a13.44,13.44,0,0,0-1.81,6.75,13.13,13.13,0,0,0,.48,3.51,13.4,13.4,0,0,0,3.93,6.35c-.31.75-.62,1.52-.95,2.29a82.44,82.44,0,0,0-2.92,8.42c-1.36,4.58-1.6,9.49-2.06,14.22-.32,3.41-.61,6.84-.83,10.27-.89,13.73-1.75,27.52-1.65,41.27.06,8.51-.15,17-.48,25.5l-.29.22a20,20,0,0,0-5.14,8.82A56.3,56.3,0,0,0,33,452a149.58,149.58,0,0,0-2.08,15.78c-.63,6.67-.93,13.37-1.21,20.07-.56,13.43-1.6,26.82-2.09,40.25-.24,6.61-.3,13.22-1,19.81s-1.63,13-2.43,19.43S22.59,580.21,22,586.68c-.62,6.63-.77,13.33-1,20-.85,27.35-1.09,54.74-2.94,82.06C17.17,701.81,15.49,714.88,15,728q-.18,5.09-.18,10.17c0,10,.5,20,1.3,30q.84,10.38.84,20.8a13.26,13.26,0,0,0,11.47,13c0,.34,0,.67.05,1a17.33,17.33,0,0,0,4.89,11.8,16.79,16.79,0,0,0,11.81,4.89c8.81,0,17.06-7.59,16.68-16.68-.6-14.42-.34-28.8.12-43.21.22-6.73.26-13.47.52-20.19.25-6.35.75-12.69.89-19,.31-13.45,1-26.87,1.3-40.32q.22-10,.79-19.93c.37-6.63,1-13.26,1-19.9,0-4-.06-7.88-.3-11.79a10.44,10.44,0,0,0,2.15-6.22c.07-7.16,0-14.38.52-21.52.41-5.78,1-11.51,1.67-17.25,1.23-7.94,2.69-15.82,4.25-23.69,1.72-8.71,2.85-17.52,4-26.31,1.4-10.08,2.85-20.15,4-30.27,1.16-10.42,2-20.84,2.81-31.29.8-9.85,2-19.65,3-29.49s1.73-19.44,2.91-29.13c1-7.68,1.92-15.31,2.36-23.08.38-7,.74-13.93.89-20.91.08-3.42.16-6.86.15-10.29,2.6.5,5.2,1,7.82,1.4a162.27,162.27,0,0,0,22.19,1.74c12.7.27,25.22,2.37,37.85,3.56s25.49,1.88,38.23,2.69c12.33.78,24.57,2.18,36.83,3.64,6.84,1,13.68,2,20.56,2.55,7.28.58,14.56,1,21.85,1.23,13.47.51,26.9.66,40.38.68,14.08,0,28.17.15,42.25.49s28.26,1.44,42.35,2.3c13.48.82,26.93,1.76,40.42,2.3,14,.55,28,.16,42,.45,13.51.29,27,1.62,40.53,1.58A371.94,371.94,0,0,0,576.45,380a15,15,0,0,0,4.19.51c6.89-.18,13.78-.23,20.66-.65,6.6-.4,13.18-1,19.76-1.62a369.28,369.28,0,0,1,38.26-1.68l10.83,2.09q5.15,1,10.35,1.93a10.74,10.74,0,0,1,2.13-.9,34.58,34.58,0,0,1,6-.7l2.94-.31c1.76-.18,3.52-.37,5.27-.57l5.13-.54,4.65-.47,2.9-.28,4.26-.39,3.3-.26,4-.3c1.37-.1,2.75-.17,4.13-.25l3-.18c11.28-.57,22.56-1,33.84-1.28l5.78-.14q3.76-.08,7.51-.12,6.27-.07,12.53,0,5.32-.5,10.65-.9c5.2-.38,10.41-.66,15.63-.73,2.78,0,5.55-.07,8.33,0h.87l.87,0h0l2,0a35,35,0,0,1,5.29.44,15,15,0,0,1,4.46,1.65,8.51,8.51,0,0,1,2.41,1.9q4.17,0,8.35,0c4.89,0,9.77-.19,14.67-.3q3.75-.08,7.52,0a77.81,77.81,0,0,0,16.48-1.65c5.47,5.45,11.12,12.86,13.56,20.41a26.51,26.51,0,0,0-2.61,10.07q-.55,6-1.21,12c-.86,5.49-1.92,10.94-2.7,16.45-1.18,8.33-2.44,16.67-3.21,25.06-.93,10.14-1.14,20.34-1.14,30.54,0,3.24,0,6.47,0,9.71.11,14.24.88,28.35,2,42.54,1,13.29.89,26.64,1.81,40,1,14.31,1.72,28.62,2.05,43,.34,14.54-.11,29-1,43.46-1.63,27.93-3.44,55.84-3.6,83.82-.06,11.23.78,22.45,1.56,33.64a216.17,216.17,0,0,0,2.56,23c.55,3.14,1.2,6.2,2,9.31,1.17,4.81,3.61,9.57,5.51,14A23.5,23.5,0,0,0,927.49,842a22.85,22.85,0,0,0,4.29-1.68,25.48,25.48,0,0,0,15.36,5.16,26,26,0,0,0,18.32-7.59C969.88,833.43,973.73,826,973.06,819.53ZM934.23,352.81q.38-.3.74-.63l.52.54c-.3.31-.58.63-.84,1C934.52,353.39,934.38,353.1,934.23,352.81Z"/><path class="cls-6" d="M545.15,689.75c5.61,7.74,5.46,7.17,13,13a39,39,0,0,0,4.85,3.13,132.81,132.81,0,0,0,18.5,8,251.64,251.64,0,0,0,26.13,7.92c8.35,2.09,16.68,4.31,25.08,6.23,10.85,2.48,21.71,4.51,32.71,6.18l9.15,1.22a34.23,34.23,0,0,0,17.39-4.7,34.64,34.64,0,0,0,15.82-20.58,33.85,33.85,0,0,0,.83-3.88l2.69-.29,9.33-1.26A35.13,35.13,0,0,0,736.14,646L729,640.56a35,35,0,0,0-17.72-4.79c-5.6-.47-11.16-.66-16.78-.64a142.45,142.45,0,0,0-15.28,1.38c-10.8,1.2-21.53,2.79-32.34,3.85s-21.55,2-32.39,2.33a216.1,216.1,0,0,1-29-1.43,118.71,118.71,0,0,0-13-1.81c-8.31-.48-17.14,3.72-22.9,9.48l-5.06,6.56a32.21,32.21,0,0,0-4.43,16.35,17.26,17.26,0,0,0-.09,1.76,30.57,30.57,0,0,0,5.11,16.15Z"/><path class="cls-7" d="M357.86,658.15a6.18,6.18,0,0,0,4,1.66c3.7.44,7.41.88,11.12,1.19,3.15.26,6.3.46,9.44.84,8.39,1.3,16.81,2.41,25.26,3.2,3.86.36,7.74.66,11.63.64,4.19,0,8.4-.36,12.6-.55,8.51-.39,16.92-1.83,25.39-2.74,8.76-.94,17.56-1.64,26.34-2.32,6-.47,12-.85,17.92-1.39,6.41-.58,12.82-1.26,19.23-1.93,2.57-.27,4.71-.84,6.6-2.73a9.33,9.33,0,0,0,0-13.21,9.77,9.77,0,0,0-6.6-2.74c-7.55-.52-15.15-1.23-22.72-1.35a179,179,0,0,0-23.23.94A216.26,216.26,0,0,0,449.92,642c-6.82,1.62-13.6,3.22-20.53,4.21l2.55-.34c-5.19.69-10.35,1.47-15.53,2.24-8.52,1.06-17.11,1.77-25.69,2a120.84,120.84,0,0,1-13.29-.18q-7.78-.64-15.54-1.56a5.44,5.44,0,0,0-4,1.67,5.7,5.7,0,0,0,0,8Zm25,3.74.69.09-.69-.09Z"/><path class="cls-7" d="M413.18,669.29c3.48.52,7,1,10.43,1.58,3,.5,6,1.28,9,1.92,6.3,1.38,12.54,2.94,18.81,4.45s12.73,3,19.12,4.37,12.8,3,19.19,4.62,12.82,3.17,19.26,4.68c6.87,1.6,13.74,3,20.68,4.25,13.33,2.42,26.57,5.46,40,7.27,9.13,1.23,18.25,2.37,27.42,3.17,3.53.31,7.07.61,10.6.67,4.57.09,9.09,0,13.64-.31a8,8,0,0,0,4.06-1.1,8,8,0,0,0,2.88-11,7.72,7.72,0,0,0-4.8-3.69,172.78,172.78,0,0,0-17.41-2.5c-5.08-.44-10.17-.8-15.25-1.21-5.33-.44-10.66-.88-16-1.41-4.56-.45-9.1-1-13.64-1.6-11.8-1.75-23.59-3.53-35.41-5.11-6.49-1-12.94-2.19-19.4-3.4-6.68-1.26-13.38-2.44-20.07-3.68-7-1.3-14-2.49-21.05-3.4-6.27-.82-12.53-1.62-18.82-2.26-4.06-.43-8.12-.86-12.21-1-3.86-.11-7.69-.26-11.52-.72l-7.7-1.14c-1.83-.28-3.63.43-4.16,2.37a3.07,3.07,0,0,0-.11.82,3.29,3.29,0,0,0,2.47,3.34Z"/><path class="cls-7" d="M512.41,667a74.24,74.24,0,0,0,5.47,7.45,44.25,44.25,0,0,0,6.15,5.68,85.93,85.93,0,0,0,16.87,10.2c5.81,2.69,11.84,4.95,17.85,7.16,8.2,3,16.57,5.5,24.91,8s16.36,5.17,24.53,7.79c8.73,2.8,17.5,5.31,26.41,7.51a11.71,11.71,0,0,0,13.22-17.2L646,701.22a11.64,11.64,0,0,0-5.17-3c-6.91-2.84-13.78-5.85-20.81-8.37-7.2-2.57-14.41-5.09-21.68-7.42-14.27-4.56-28.53-8.91-42.49-14.34a89.31,89.31,0,0,1-14.94-8.16,40,40,0,0,1-3.81-3.62c-.63-.88-1.25-1.76-1.86-2.67a13.85,13.85,0,0,0-7.9-6.07,13.34,13.34,0,0,0-10.18,1.34,13.92,13.92,0,0,0-6.61,11.73,11.23,11.23,0,0,0,1.88,6.33Z"/><path class="cls-7" d="M522.49,682.34a6.88,6.88,0,0,0,2.93,3.81c3.86,2.86,7.75,5.65,11.79,8.26,3.25,2.1,6.59,4.07,10,5.93,3.65,2,7.41,3.77,11.23,5.44s7.84,3.41,11.85,4.92c7.66,2.88,15.33,5.63,22.93,8.66,3.53,1.41,7.08,2.85,10.7,4,3.91,1.23,7.84,2.24,11.84,3.14,5.89,1.33,12,2.16,17.93,3,3.68.49,7.36,1,11,1.27s7.22.4,10.85.49a7.45,7.45,0,0,0,2-14.63c-16.22-3.92-32.86-5.84-48.92-10.36-7.43-2.1-14.69-4.79-22-7.14-7.68-2.47-15.45-4.62-23.16-7-2.74-.83-5.42-1.78-8.08-2.82a101,101,0,0,1-10.61-5.44c-1.75-1.08-3.56-2.09-5.23-3.27-2.56-1.82-5.14-3.62-7.66-5.48a6.15,6.15,0,0,0-4.92-.64,6.38,6.38,0,0,0-4.45,7.84Z"/><path class="cls-7" d="M519.15,686.18c.27.62.53,1.25.79,1.87a7.88,7.88,0,0,0,2.8,2.8,151.91,151.91,0,0,0,17.86,11.87,92.17,92.17,0,0,0,19.61,8c6.61,1.86,13.28,3.45,20,4.92,6.37,1.38,12.67,3,19,4.37,3.05.65,6.12,1.19,9.17,1.85s6.34,1.48,9.51,2.23c6.91,1.61,13.85,3,20.81,4.38a282.74,282.74,0,0,0,38.82,4.95c4.62.25,9.23.49,13.86.67a3.38,3.38,0,0,0,0-6.76c-9-.38-18.05-.89-27.05-1.72a49.2,49.2,0,0,1-5.27-.77c-2.28-.53-4.57-1-6.82-1.67-2.51-.74-5-1.5-7.45-2.38s-4.69-1.74-7-2.65c-8.82-3.39-17.73-6.57-26.44-10.21l.24.1a212.06,212.06,0,0,0-30.56-10.51c-5.52-1.37-11.07-2.64-16.61-4a124,124,0,0,1-14.36-4.4,81.25,81.25,0,0,1-8.55-4.39c-1.6-1-3.25-1.88-4.76-3-2.06-1.46-4.12-2.93-6.14-4.43a7.47,7.47,0,0,0-6-.79,7.8,7.8,0,0,0-5.73,7.55,7.78,7.78,0,0,0,.27,2Z"/><path class="cls-7" d="M586.87,713.09a10.62,10.62,0,0,0,4.72,6.13c5,3.33,10.1,6.43,15.32,9.38,4.8,2.7,9.58,5.59,14.62,7.81a65.75,65.75,0,0,0,9.76,3.64,88.47,88.47,0,0,0,9,1.91,142.21,142.21,0,0,0,18.87,1.7c11.54.22,23.07-.05,34.61-.13A218.72,218.72,0,0,0,731,740a145.21,145.21,0,0,0,20.31-5c7.89-2.64,15.59-5.62,23.24-8.88A9.93,9.93,0,0,0,766.89,708c-18,5.06-36.23,9.66-54.74,12.43-5.15.53-10.26.89-15.45,1-5.7.13-11.42-.19-17.11-.4-10.29-.4-20.53-1.31-30.74-2.63-4.81-.67-9.61-1.37-14.39-2.22a70.41,70.41,0,0,1-14-4.42c-3.14-1.47-6.21-3-9.27-4.6s-6.2-3.63-9.21-5.6c-4.68-3.08-11.33-1-14,3.68a10.33,10.33,0,0,0-1,7.91Zm62.28,5.3,2.19.3-2.19-.3Z"/><path class="cls-7" d="M674,696.16a13.74,13.74,0,0,0,9.34,3.86q29.26,1.71,58.52,2.64c8.41.27,16.84.35,25.25.44,4.18.05,8.33-.12,12.5-.37,6.82-.42,13.51-2,19.4-5.53a12.81,12.81,0,0,0,5.82-14.3c-1.56-5.64-6.55-9-12.22-9.31-4.71-.24-9.25-.82-14-.45-4.12.31-8.23.73-12.35,1-8.21.58-16.49,1.19-24.71,1.16-8,0-16.06.19-24.07-.15-11.39-.47-22.78-.92-34.17-1.56-7.19-.39-13.21,6.31-13.21,13.21a13.3,13.3,0,0,0,3.87,9.34Z"/><path class="cls-7" d="M752.27,679.85l2.66,2.05a13.1,13.1,0,0,0,6.64,1.79c8.8,1,17.63,2.31,26.46,3,3.78.31,7.55.76,11.34.81,7.27.1,15.74.83,21.9-3.63a11,11,0,0,0,5.06-12.44c-1.36-4.94-5.7-7.8-10.62-8.09l-1.13-.05c-9-1.74-18.15-2.38-27.24-3.14-8.6-.73-17.2-1.78-25.77-2.77-3.27-.37-7.08,1.63-9.3,3.85a13.15,13.15,0,0,0,0,18.59Zm60.08-16.77.68.09-.68-.09Z"/><path class="cls-7" d="M797.69,655.83a3.31,3.31,0,0,0,2,1.56c6.52,1.13,13,2.21,19.57,3.08a3.25,3.25,0,0,0,2.4-1,3.38,3.38,0,0,0,0-4.79,3.71,3.71,0,0,0-2.4-1l-1.68-.23c-5.38-.75-10.74-1.67-16.09-2.62a3.7,3.7,0,0,0-2.61.34,3.36,3.36,0,0,0-1.68,2.92,3.4,3.4,0,0,0,.46,1.72Z"/><path class="cls-7" d="M894.91,702.75c-2.38-13.25,8.13-77.53-.95-78.81-62.18-8.48-185.4-15.75-250.31-10.11-31.14,2.71-281.78,41.26-281.78,39.68,0,1.12,128.42,25.93,138,27.4,26.36,4.08,69.35,1.78,92.78,11.47,14,5.79,8.12,12.66,24.26,20.62,21.67,10.68,238.34,38.1,229.29-17.14C846,694.8,895.11,704,894.91,702.75Z"/><path class="cls-8" d="M888.09,858.58c.77-6,10.51-9.45,10.08-15.78-.84-12.41,5.19-39.24,4.35-51.65-1-14.35-.19-62.48-4.35-81.88-.51-2.36-67.92,18.46-70.39,18.78l-3,.39c-2.9.3-5.82.46-8.72.75-5.24.54-10.47,1.17-15.67,2-8.31,1.26-16.52,3-24.68,5s-16.39,4.22-24.61,6.18c-8.69,2.07-17.36,4.38-26.11,6.13a162.72,162.72,0,0,1-29.2-.06c-4.25-.38-9,2-11.9,4.94a13.2,13.2,0,0,0-.94,1c-2-.48-4.11-.94-6.15-1.43A342.15,342.15,0,0,1,638,740.74c-11.94-4.38-23.92-8.68-35.73-13.39-10.86-4.63-21.65-9.41-32.21-14.68a380.79,380.79,0,0,0-41.44-18c-12.66-4.53-25.07-9.54-38.18-12.67-6.83-1.64-13.7-3.11-20.53-4.77-6.58-1.58-13.11-3.32-19.71-4.84a271.32,271.32,0,0,0-53.3-7.12c-7.17-.2-14.33.72-21.45,1.47-3.93.42-7.86,1-11.78,1.6-4.64-1.54-9.28-3.06-14-4.5-13-4-26.25-6.74-39.58-9.31-14.7-2.84-29.58-5-44.47-6.59-13.7-1.45-27.39-2.06-41.16-2.18-13.3-.1-26.61,0-39.91.17-13,.17-26,.55-39,.48-13.19-.08-26.4.08-39.59-.2-2.78-.06-5.55-.22-8.33-.3a34.21,34.21,0,0,0-8.67.95,13,13,0,0,0-5.31,3.2c-2.25,2.24-2.86,4.83-3.25,7.82-.11.85-.17,1.71-.22,2.57a16.26,16.26,0,0,0-11.11,4.74,16.47,16.47,0,0,0-4.23,7.26,15.53,15.53,0,0,0-.57,4.15,18.85,18.85,0,0,0,2.23,8.52c2.63,5.21,6.73,9.45,10.69,13.67l.69.73q-.06,3.29-.11,6.58c-.11,8.64-.51,17.28-.79,25.92a18.36,18.36,0,0,0-5.38,8.73,19.19,19.19,0,0,0,4.85,18.37l.51.54c.22,4.91.49,9.82.73,14.73a19.49,19.49,0,0,0-.5,20.39c.69,1.14,1.38,2.26,2.09,3.38,0,.22,0,.44.08.66a50.27,50.27,0,0,0,4.35,14,17.48,17.48,0,0,0,2.58,11,60.77,60.77,0,0,0,9.62,11.12c3.55,3.18,7.46,6,11.29,8.84l2.93,2.28c12.08,10.44,24.32,20.69,36.57,30.94q10.52,8.81,21,17.62,7.54,6.38,15.09,12.72c3.33,2.81,6.78,5.56,10.11,8.44l9.92,9.8a20.53,20.53,0,0,0,24.6,3.18,19.56,19.56,0,0,0,4.52-3.66q6,2.83,12.07,5.46c17.44,7.54,32.33,33,50.68,38,11.32,3.05,27,16.8,38.27,21.25,43.12,17,92.5,41.76,137.44,37.75,56.42-5,117.58-25.53,172.86-37.75,71.08-15.71,165.34-64.09,219.61-116.28C870.44,866.34,886.86,868.21,888.09,858.58Z"/><path class="cls-9" d="M143.37,619.57a16.52,16.52,0,0,0,7.51,9.77l3.91,1.64a16.27,16.27,0,0,0,8.69,0c4.28-.68,8.55-1.36,12.84-2,8.49-.93,17-1,25.53-1.75,4.65-.44,9.27-1.13,13.9-1.64,5-.55,10-.86,15-1.09,9.94-.46,19.94.11,29.88.35,5,.11,9.94.18,14.91,0,5.3-.19,10.57-.93,15.83-1.57a16.43,16.43,0,0,0,8.33-2.25,16.61,16.61,0,0,0,7.57-9.86c2.33-8.46-2.78-18.18-11.52-20.29-2.91-.7-5.81-1.39-8.73-2-4.16-.94-8.41-1.39-12.64-1.93-5.88-.75-11.82-.91-17.73-1.1a228.79,228.79,0,0,0-34.53,1.93c-6.74.8-13.5,1.57-20.21,2.64-5.3.84-10.57,2-15.85,2.93-10.46,1.91-20.74,4.49-31.25,6.15-4,.62-7.83,4.19-9.77,7.51a16.44,16.44,0,0,0-1.65,12.6Z"/><path class="cls-9" d="M131,628.59c3.75,4.15,9.25,7,14.53,8.83a59.57,59.57,0,0,0,11.87,3.21q5.89.84,11.78,1.63c6.37.91,12.71,1.88,19.11,2.62,5.64.63,11.32,1.06,17,1.39,5.85.35,11.73.42,17.6.63,5.64.22,11.28.6,16.92,1,11.21.79,22.43,1.44,33.62,2.55,5.58.56,11.14,1.31,16.71,1.92s11.43,1.12,17.16,1.63,11.39,1.21,17.12,1.25c6.06,0,12.1-1,18.09-1.9a67.12,67.12,0,0,0,8.23-1.42c.87-.23,1.73-.57,2.58-.88,1.51-.54,3.36-1.33,4.59-1.91a22.83,22.83,0,0,0,4.45-3.13,18.49,18.49,0,0,0,4.23-5.24,16.52,16.52,0,0,0,2.24-5.66c.72-4.45.88-6.31,0-10.82a15.59,15.59,0,0,0-26.05-6.88l-1.36,1.77c-2.12-.11-4.24-.27-6.35-.49q-16.26-2.36-32.61-4.1c-11.32-1.2-22.57-2.49-33.95-2.88-11.07-.38-22.14-.2-33.2.31-11.57.53-23.15.54-34.7,1.4a288.45,288.45,0,0,0-31.42,4.09c-4.46.83-8.91,1.77-13.32,2.86-4.06,1-8,2.05-12.15,2.72-1.71.14-3.38.23-5.08.2l0,0a3.41,3.41,0,0,0,1.22-4.63,3.45,3.45,0,0,0-4.64-1.21c-1.87.94-4,1.77-5.45,3.35a3.88,3.88,0,0,0-1,2.69,8.3,8.3,0,0,0,2.19,5.13Zm39.19,13.8,2,.27-2-.27Z"/><path class="cls-9" d="M363.32,599.13c-2-3.94-5.3-7.74-8.05-11.14-1.46-1.81-2.93-3.62-4.42-5.42l-2.5-3q-2.26-3-4.56-5.87a207.89,207.89,0,0,0-14.87-17.1,118.88,118.88,0,0,0-20.8-16.36,147.46,147.46,0,0,0-16.54-9.5c-.52-.5-1-1-1.55-1.51a89.71,89.71,0,0,0-8.83-7.41,53.15,53.15,0,0,0-12.65-6.66c-4-1.53-9.35-.4-12.93,1.69a16.87,16.87,0,0,0-4.54,3.93A192.47,192.47,0,0,0,222,514c-6.91-1.14-13.85-2.21-20.86-2.14-4.14,0-3.26,5.06-7.27,6.32-8.14,2.56-22.65,3.05-24.34,12.35a19.5,19.5,0,0,0-.43,8.28l-.36.18a92,92,0,0,0-13.21,8.26c-6.35,4.76-12.78,9.89-17.93,16a183,183,0,0,0-13.74,19.09,167.7,167.7,0,0,0-8.24,15.27,50.66,50.66,0,0,1-4,6.66c-.63.88-1.32,1.73-2,2.6a29.55,29.55,0,0,0-3.22,6.7,12.46,12.46,0,0,0-.75,4.57,29,29,0,0,0,.74,6.05c1,4.63,4.27,7.84,7.9,10.52,3.44,2.55,8,2.93,12.09,3,5,.12,10-1.12,14.75-2.57a114.33,114.33,0,0,1,14-3.47c11.58-1.18,23.15-.73,34.77-.1,13,.71,26,.54,39.07.18,12.07-.34,24-.34,36.1.47s23.88,2,35.84,2.72a104,104,0,0,0,16.67,0c6.55-.67,13-1.88,19.5-3.06a8.43,8.43,0,0,0,2-.62,21.38,21.38,0,0,0,16-2,25.26,25.26,0,0,0,8.47-8.41C367.89,614.3,366.62,605.68,363.32,599.13Z"/><path class="cls-8" d="M587.31,797.88a25.13,25.13,0,0,0,9.86,9.38,62.36,62.36,0,0,0,6,2.56,13.14,13.14,0,0,0,4.68.8L609,811a73,73,0,0,1,6.76,4.1c3.06,2,6.18,3.94,9.28,5.92,4.81,3.08,11.55,1,14.34-3.76,3-5.16,1-11.17-3.76-14.35-1.25-.83-2.48-1.69-3.72-2.56a50,50,0,0,1-5.1-5l-.48-.76a21.63,21.63,0,0,0,.17-2.26,17.84,17.84,0,0,0-1.15-6.68c-1.7-4.53-3.4-8.27-7-11.67a20,20,0,0,0-23.93-3.09,20.32,20.32,0,0,0-9.79,17.36,18.24,18.24,0,0,0,2.71,9.67Z"/><path class="cls-10" d="M187.47,726.26a32.46,32.46,0,0,1,5,1.5c2.49,1.15,4.85,2.48,7.23,3.84,2.74,1.57,5.42,3.2,8,4.94,2.43,1.62,4.87,3.34,7.45,4.71,3,1.58,6,3.11,9.07,4.44a4.7,4.7,0,0,0,3.29.43,4.31,4.31,0,0,0,2.56-2,4.36,4.36,0,0,0,.43-3.3,4.55,4.55,0,0,0-2-2.55c-2.77-2-5.62-3.77-8.45-5.63s-5.4-3.79-8.14-5.61a83.11,83.11,0,0,0-8.39-4.71,54.42,54.42,0,0,0-13.7-5,5,5,0,0,0-3.57.47,4.74,4.74,0,0,0-2.13,2.77,4.41,4.41,0,0,0-.15,1.16,4.58,4.58,0,0,0,3.39,4.54Z"/><path class="cls-10" d="M217.49,658.86c0,1.15,0,2.3,0,3.46a32.07,32.07,0,0,0,.83,9.06A57.94,57.94,0,0,0,221,679.3a25.3,25.3,0,0,0,1.66,3.26c.27.43.56.84.86,1.25q.42,2.06.84,4.13c1.28,6.29,2.66,12.57,3.6,18.92.19,1.74.36,3.5.4,5.26a26.49,26.49,0,0,1,0,3c-.07.68-.15,1.36-.24,2a13.33,13.33,0,0,1-.42,1.92l-.53-.16-.74-.41c-.35-.3-.69-.61-1-.93a9.35,9.35,0,0,1-.66-1l0-.13c0-.06,0-.13,0-.19l0,0a1.2,1.2,0,1,0-2.31-.63c-.39,1.26.26,2.57.83,3.66s1.2,2.2,1.73,3.34c.19.45.39.9.59,1.35a2,2,0,0,0,.44.71l.59.77c.37.3.75.59,1.14.86a6.77,6.77,0,0,0,1.44.55,5.82,5.82,0,0,0,2.83,0,7.73,7.73,0,0,0,3-1.83,8,8,0,0,0,1.84-2.68,13,13,0,0,0,1-2.84,24.4,24.4,0,0,0,.43-3.25,43.72,43.72,0,0,0-1.07-9.42c-.49-2.74-1.22-5.42-1.79-8.13s-1-5.19-1.42-7.79q-.25-1.92-.5-3.84a4.72,4.72,0,0,0,.61-5.6q-.83-1.23-1.59-2.52c-.19-1.84-.36-3.69-.57-5.52s-.49-3.8-.86-5.66c-.31-1.55-.83-3-1.28-4.52-.38-1.29-.56-2.64-.9-3.93-.07-.25-.14-.49-.23-.73a21.76,21.76,0,0,0-.3-2.72,6.17,6.17,0,0,0-3-4.44,5.48,5.48,0,0,0-4.17-.54,5.38,5.38,0,0,0-3.78,3.78c-.12.58-.15,1.17-.22,1.75l0-.27a9.39,9.39,0,0,0-.05,1,5.46,5.46,0,0,0,.3,1.85Zm7.92,58.76.18.25-.18-.25Zm1.16,1,.1.09-.1-.09Zm.8.79.22-.09-.22.09Z"/><path class="cls-10" d="M304.16,721.94c-.08-.52-.16-1-.23-1.57a17.64,17.64,0,0,0-1.64-5.06,9.1,9.1,0,0,0-.86-1.47c-1.21-1.72-2.56-3.25-4.67-3.83-2.8-.78-5.32.6-6.88,2.84a10.24,10.24,0,0,0-1,2.23l.27-.62c-.22.54-.43,1.09-.64,1.63-.14.3-.31.59-.46.88-.16,0-.31,0-.47.07a8.22,8.22,0,0,0-4.6,2.67c-.93,1.12-1.75,2.31-2.59,3.5-.22.31-.44.64-.65,1-.11-.41-.23-.81-.35-1.21-1.57-5.75-2.75-11.6-4.16-17.4-.63-2.59-1.39-5.15-2.06-7.73s-1.35-5.38-2-8.08c-1.42-5.75-3.14-11.39-5-17-.73-2.24-1.43-4.5-2.15-6.75l-.5-1.58a23.51,23.51,0,0,0-.71-3.11,14,14,0,0,0-1.21-3.34,5,5,0,0,0-9.36,2.54,9.44,9.44,0,0,0,.2,2.08c0,1.59-.2,3.19-.29,4.77-.23,3.7-.3,7.4-.64,11.09a86,86,0,0,0-.61,11.21,103.64,103.64,0,0,0,1.46,11.23,34.94,34.94,0,0,1,.11,5.27c-.06.33-.13.66-.21,1a7,7,0,0,0-2.33-1.24,4.2,4.2,0,0,0-2.72.19c-.64-2.23-1.2-4.5-1.94-6.71-1.61-4.72-3.5-9.35-4.95-14.12-3-9.87-5.43-20-7.68-30-.84-3.79-5.17-6-8.78-5a7.08,7.08,0,0,0-5.17,7,8.17,8.17,0,0,0,.19,1.77c1.37,6.23,2.89,12.4,4.47,18.57a157,157,0,0,0,5.69,17.4c1,2.68,2.08,5.33,3,8,.69,1.94,1.2,3.95,1.72,5.95q.66,4.57,1.39,9.13a36.13,36.13,0,0,0-4.54-2.62,10.2,10.2,0,0,0-4.28-1.4,6.22,6.22,0,0,0-1.54.2c-1-1.75-2-3.5-3-5.21-1.16-1.92-2.48-3.75-3.79-5.57a94.06,94.06,0,0,1-6.93-11.25c-1.09-2.06-2.19-4.11-3.33-6.14a28.56,28.56,0,0,0-3.07-4.32,12.81,12.81,0,0,0-3.28-2.64,6.11,6.11,0,0,0-4.68-.82,7.87,7.87,0,0,0-3.9,3,3.82,3.82,0,0,0-.59,2.17,5.64,5.64,0,0,0,.19,1.43c.08.31.25.61.35.92a20.94,20.94,0,0,0,1.1,2.76c.56,1.12,1,2.29,1.65,3.4,1.32,2.43,2.82,4.75,4.31,7.08.75,1.17,1.5,2.37,2.28,3.53s1.7,2.24,2.58,3.34a47.28,47.28,0,0,1,4,6.29c1.08,2.16,2.21,4.3,3.19,6.5.19.46.36.92.54,1.39a6.33,6.33,0,0,0-.17,1.39,6.06,6.06,0,0,0,.26,1.76c.51,1.7,1.08,3.37,1.67,5,0,0,0,.07,0,.1-.14.78-.32,1.57-.49,2.35-.38-.15-.76-.3-1.15-.41a22.14,22.14,0,0,0-3.52-.7c-1.81-.68-3.59-1.42-5.37-2.16q-3.12-1.32-6.25-2.59a23.91,23.91,0,0,1-4-2.32c-.85-.69-1.65-1.42-2.43-2.18-1.09-1.07-2-2.32-3.16-3.3a5.08,5.08,0,0,0-3.16-1.22,3.85,3.85,0,0,0-3.11,1.83,8.12,8.12,0,0,0-1,2.12,20.33,20.33,0,0,0-.78,4.54,11.33,11.33,0,0,0-.1,1.47,10.37,10.37,0,0,0,.88,4.15,8.94,8.94,0,0,0,2.31,3.2c.94.82,2,1.55,3,2.29a23.67,23.67,0,0,0,2.66,1.71c.94.52,1.92,1,2.87,1.51s1.89,1.12,2.85,1.65a64,64,0,0,0,6.44,3c2.71,1.15,5.41,2.38,8.19,3.35v0a4.78,4.78,0,0,0,3.62-.48l.65.78,1.86,2.13c1.32,1.49,2.62,3,4,4.49s2.63,2.71,4,4a69.62,69.62,0,0,0,5.12,6.07,7,7,0,0,0,2.93,1.73,8.84,8.84,0,0,0,.73.88,7.52,7.52,0,0,0,.27.92,42.74,42.74,0,0,0-2.48,7.67c-.19.64-.43,1.28-.63,1.92a9.43,9.43,0,0,0-.36,2.08,25.75,25.75,0,0,0-.44,3.88,8,8,0,0,0,.37,2.51c1.09,3.3,4.37,5.55,7.69,6.19,1.53.3,3.1.48,4.65.67,1.92.29,3.83.66,5.72,1,2.45.52,4.86,1,7.25,1.71a29.59,29.59,0,0,0,13.52.82c2.23-.38,3.66-2.05,4.9-3.77s1.13-4.12.86-6.23q-.18-1.33-.36-2.65a84.2,84.2,0,0,1-.71-10.19c.14-.66.25-1.32.35-2a14,14,0,0,0,.11-4.87,11.77,11.77,0,0,0,.93-1.94,7.52,7.52,0,0,0,4.8-3.59c.75-1.36,1.47-2.74,2.19-4.12a54.88,54.88,0,0,1,3.65-5.58q2.26-3.23,4.55-6.46c.7-.88,1.41-1.75,2.12-2.61a48.92,48.92,0,0,1,3.68-4.2c3-2.93,7.19-5.2,9.07-9.12a8.59,8.59,0,0,0,1-3.88A20.17,20.17,0,0,0,304.16,721.94Zm-105.63,17.5.13.1.06,0Z"/><path class="cls-10" d="M273.05,785.73h0l.07.51Z"/><path class="cls-11" d="M471.7,817.82a12.46,12.46,0,1,0-12.46-12.46,12.57,12.57,0,0,0,12.46,12.46Z"/><path class="cls-11" d="M594.82,828.55a43.7,43.7,0,0,0,7.46,3.34c4.1,1.16,11.72.67,12.56-4.6a6.11,6.11,0,0,0-4.11-7.23,61.63,61.63,0,0,0-6.77-2.19,23.21,23.21,0,0,1-2.91-1.46l-.18-.19c-1-1.36-1.86-2.74-2.89-4.07a41.24,41.24,0,0,0-3.83-4c-1.79-1.72-3.35-3.68-5.09-5.47-1.93-2-4-3.8-6.13-5.58a88.92,88.92,0,0,0-15.24-9.92,150.48,150.48,0,0,0-19.53-8.67,89.22,89.22,0,0,0-16.81-4.15q-8.94-1.48-17.93-2.62l-.67-.11c-2.34-.4-4.7-.68-7.07-.85-4.35-.54-8.73-1-13.09-1.25-5-.24-9.89-.47-14.87-.29A82.1,82.1,0,0,0,463.4,771a23.78,23.78,0,0,0-4.54,1.46l-1.76-.15a118.2,118.2,0,0,0-18.28-.27c-8.17.57-16.15,2.55-24.08,4.47a121.63,121.63,0,0,0-17.2,5.83c-7.15,2.93-13.48,7-20,11.15a79.06,79.06,0,0,0-14.93,11.9,105.28,105.28,0,0,0-8.38,10.32c-8.62,11.78-15.86,24.67-20,38.72A72.32,72.32,0,0,0,331.95,867c-.35,3.26-.67,6.52-.79,9.79q-.11,3.22-.11,6.44-.78,4.33-1.19,8.72c-.37,4-.52,7.94-.52,11.9,0,6.69.42,13.37.88,20.11q.17,2.52.39,5a10.71,10.71,0,0,0-4.17,3l-.77.94a14.69,14.69,0,0,0-3.81,6.54,15.07,15.07,0,0,0-1,5.78q0,.36,0,.73c.15,4.15,1.65,7.57,3.39,11.28a45.9,45.9,0,0,0,7.51,10.51,51.09,51.09,0,0,0,6.45,5.8c2.7,2.13,5.42,4.23,8.15,6.33a29.39,29.39,0,0,0,6.9,6.55A11,11,0,0,0,357,988c2.41,1.75,4.85,3.46,7.37,5a138.56,138.56,0,0,0,20.78,10.54,124.67,124.67,0,0,0,18.75,6.37c6.61,1.57,13.26,2.91,19.92,4.24,6.28,1.27,12.55,2.42,18.89,3.33a186.32,186.32,0,0,0,24.52,1.79,253.48,253.48,0,0,0,29.69-1.44c9.85-1,19.7-2,29.52-3.22,6.84-.86,13.64-1.79,20.43-3,5.06-.88,10.07-2.12,15.07-3.31,2-.48,4.07-1,6.09-1.56a50.67,50.67,0,0,0,21.59-12,65.59,65.59,0,0,0,4.58-5.71,25.48,25.48,0,0,0,1.56-2.86,17.93,17.93,0,0,0,13.82-8.62,16,16,0,0,0,2.17-4.8,17.62,17.62,0,0,0,0-9.29c-.18-1.21-.41-2.36-.68-3.55-.46-2-1.08-4-1.64-6-.71-2.54-1.48-5.07-2.27-7.59-.55-5.27-1.07-10.54-1.5-15.83-.57-7.07-1-14.15-1.69-21.22-.2-1.45-.38-2.91-.58-4.36a16.36,16.36,0,0,0-11.87-11.54v0a14.34,14.34,0,0,0,2.79-4.93c1.54-4.56-.12-9.23-1.4-13.69l3.49,1.06a24.08,24.08,0,0,0,6,1.1,13.09,13.09,0,0,0,4.12-.26,21.53,21.53,0,0,0,2.7-1.19c4.09-2,4.89-7.41,2.93-11.12a7.79,7.79,0,0,0-2.84-2.87l-.2-.11-.54-.3a17.83,17.83,0,0,0-.86-3.8,30.49,30.49,0,0,0-4-7.95,40.23,40.23,0,0,0-4.2-5,44.05,44.05,0,0,0-6.11-4.64,74.72,74.72,0,0,0-7.57-4.18,10.29,10.29,0,0,0,3-4.89,9.83,9.83,0,0,0,.33-3.1c1.44.27,2.88.46,4.34.62C594,828.31,594.39,828.42,594.82,828.55Zm13.93,33.8,0,0h0Z"/><path class="cls-12" d="M616.43,819.86a13.82,13.82,0,0,0-3.37-4.08,111.28,111.28,0,0,0-10-8.13c-3.28-2.54-6.55-5.09-9.85-7.6-4.22-3.26-8.42-6.48-12.89-9.41-4.15-2.73-8.45-5.22-12.63-7.91a98.84,98.84,0,0,0-13.51-7.8c-2.75-1.21-5.54-2.29-8.36-3.34s-5.73-1.89-8.52-3c-2.52-1-5.65.64-6.93,2.81a5.82,5.82,0,0,0-.29.6c-1.34-1.1-2.71-2.17-4.12-3.19a97,97,0,0,0-9.36-6.09c-4.35-2.43-10.19-4.85-15.2-3.47a7.36,7.36,0,0,0-5.21,5.2,13.18,13.18,0,0,0-.28,2.51,7.46,7.46,0,0,0,.92,3.63,19.07,19.07,0,0,0,3.64,4.42,84,84,0,0,0,6.75,5.68c2.66,2.11,5.35,4.18,8,6.26q3.55,2.72,7.13,5.42,1.4,1.53,2.77,3.08c5.7,6.4,11.15,13,16.42,19.75,4.56,6,9,12,13.16,18.28,2.21,3.36,4.15,6.94,6,10.5,1.73,3.3,3.36,6.61,4.86,10a162,162,0,0,1,5.51,18.29,7,7,0,0,0-.06,4.12,152.15,152.15,0,0,1,4.34,18.55c1.16,10.41,1.73,20.93,2.09,31.39a207.55,207.55,0,0,1-.8,31.24c-1.14,6.47-2.59,12.87-4,19.26-.75,3.3-1.59,6.57-2.42,9.84-.45,1.73-.91,3.47-1.38,5.2a54.25,54.25,0,0,0-1.39,8.57,11.83,11.83,0,0,0,1.64,6.06,12,12,0,0,0,7.18,5.52c6,1.66,13.42-2,14.77-8.38,2.32-10.88,3.83-21.87,5.28-32.9a127.93,127.93,0,0,0,1.15-14.36,133.62,133.62,0,0,0-.87-15.51c-.94-9.76-2.26-19.52-3.55-29.23-1.34-10-2.7-20.06-5-29.92-.71-3-1.53-5.88-2.39-8.8.27-.25.54-.49.81-.75a34.48,34.48,0,0,1,5.54-.25c1.72.09,3.43.21,5.14.4,1.93.33,3.82.78,5.71,1.27,2.1.55,4.37,1.3,6.54.71a5.26,5.26,0,0,0,3.56-3.64c.55-2-.27-3.65-1.45-5.17a53.13,53.13,0,0,0-5.16-5.21c-1.65-1.6-3.27-3.21-4.87-4.85-3.16-3.22-6.11-6.66-9.17-10-2.73-3-5.54-5.81-8.41-8.62a9.2,9.2,0,0,0,2.37-5.75,63.84,63.84,0,0,0,8,.72c3.81,0,7.51-.62,11.29-.82.85,0,1.69-.05,2.53,0,2.58.07,5.18-.39,7.08-2.28a8.3,8.3,0,0,0,1.91-3.41C617.79,823.37,617.16,821.56,616.43,819.86Z"/><path class="cls-13" d="M203.09,953.84c0,4.43,0,8.81.31,13.23.22,3.14.61,6.24,1.06,9.36.19,1.28.36,2.56.55,3.85a25.44,25.44,0,0,0,3.84,9.9,19.51,19.51,0,0,0,2.3,3,19.9,19.9,0,0,0,4.38,6.28,16.69,16.69,0,0,0,9.38,4.7,17.74,17.74,0,0,0,5.21,11.53c3.5,3.49,7.73,4.88,12.54,5.2l.68,0a15.24,15.24,0,0,0,7.11-1.38,21.89,21.89,0,0,0,5.28,2.25,26.06,26.06,0,0,0,6.94,1.09c4.57,0,8.19-1.44,12.13-3.56,8.46-4.55,12.4-15.28,9.9-24.34a21.1,21.1,0,0,0-2.34-5.42c-.22-6.49.08-13,.23-19.46q.14-6.55.3-13.1.09-3.83.07-7.67a132.34,132.34,0,0,0-1.86-20.07c.56-3.39,1.1-6.78,1.52-10.2.64-5.23,1.54-10.49,2-15.74q1.21-15.21,2.26-30.4c.61-9,1.67-17.9,2.74-26.82q1.47-9.63,3-19.24c.64-4,1.26-8.09,1.75-12.15.64-5.25.55-10.48-2.31-15.15a15.69,15.69,0,0,0-8.94-6.88,29.94,29.94,0,0,0-5.3-.84,269.58,269.58,0,0,0-27.44-1.81c-5.74-.15-11.52-.35-17.26-.33a28.1,28.1,0,0,0-6.43.88,17,17,0,0,0-9.72,7c-2.46,3.43-2.28,7.69-2.39,11.69-.11,4.75-.59,9.49-.49,14.25.06,3,.1,5.92.15,8.88,0,.44,0,.9,0,1.36-1.12,5.57-1.83,11.23-2.51,16.88-.38,3.16-.71,6.32-1,9.49a19.71,19.71,0,0,0-6.22,9.21,117.84,117.84,0,0,0-3.48,14c-.88,4.46-1.83,8.92-2.54,13.43-1,6.23-2.06,12.43-2.76,18.7l-1.09,9.71c-.46,4.07-.55,8.11-.67,12.2,0,.16,0,.32,0,.48a19.23,19.23,0,0,0,9.19,15.9Zm76.33-14.29.2-1.35-.17,1.31,0,0Z"/><path class="cls-14" d="M232.1,783.83a3.17,3.17,0,0,0,2,.84c1.85.24,3.7.4,5.54.62a35.55,35.55,0,0,1,5.61,1.32,56.9,56.9,0,0,0,6.31,1.5c2.54.53,5.09,1,7.68,1.32a39,39,0,0,0,6.69,0,4.1,4.1,0,0,0,3.87-2.95,4,4,0,0,0-.4-3.09,4.35,4.35,0,0,0-2.4-1.85,25.29,25.29,0,0,0-3.53-1.21,42.87,42.87,0,0,0-5.15-.83c-1.3-.13-2.64-.06-3.94-.07s-2.61,0-3.92-.08-2.34-.11-3.53-.06-2.53.25-3.81.3-2.66-.08-4-.16-2.48-.21-3.71-.37h.09l-1.42-.19a2.72,2.72,0,0,0-2,.84,2.86,2.86,0,0,0,0,4.07Zm7.75,1.49.3,0-.3,0Z"/><path class="cls-14" d="M230.05,787.31a4.72,4.72,0,0,0,3.16,1.32,59.82,59.82,0,0,0,7.83.21,56.24,56.24,0,0,1,6.74,0c2.11.15,4.2.37,6.31.56,2.45.23,4.9.28,7.36.5a28.54,28.54,0,0,1,5.79,1.58,4.23,4.23,0,0,0,3.37-.45,4.37,4.37,0,0,0,1.57-6,4.31,4.31,0,0,0-3.78-2.16c-4,.39-8-.54-12-.9-3.67-.34-7.36-.26-11-.67-1.57-.24-3.12-.54-4.68-.79-2.47-.4-5-.64-7.47-.86a4.29,4.29,0,0,0-3.16,1.31,4.48,4.48,0,0,0,0,6.35Z"/><path class="cls-14" d="M265,783.11a2.43,2.43,0,0,0,.67,1.61,2.29,2.29,0,0,0,1.61.67,2.31,2.31,0,0,0,1.62-.67,2.18,2.18,0,0,0,.66-1.61c-.21-1.79-.44-3.59-.51-5.4a31.11,31.11,0,0,1,.21-4.84,31.54,31.54,0,0,1,1.12-4.78c.52-1.66,1.13-3.28,1.79-4.88a65.49,65.49,0,0,1,7.68-13.05c1.32-1.66,2.72-3.27,4.14-4.85a30.18,30.18,0,0,1,2.6-2.42c.78-.67,1.57-1.32,2.38-2,1.2-.9,2.4-1.79,3.56-2.75s2.12-1.86,3.2-2.77,2.09-1.74,3.13-2.6a38,38,0,0,0,3.5-2.95,2,2,0,1,0-2.76-2.77c-.58.52-1.19,1-1.77,1.5s-1,1-1.55,1.48c-.93.9-1.88,1.76-2.89,2.56-2,1.54-4.25,2.91-6.42,4.26a44,44,0,0,0-6.48,5,67,67,0,0,0-5.66,5.59,61.4,61.4,0,0,0-4.95,6.51,40.48,40.48,0,0,0-3.62,6.9,28.08,28.08,0,0,0-1.85,7.42,36.1,36.1,0,0,0-.23,4.23,92.92,92.92,0,0,0,.83,10.53Zm23.73-42,.14-.11-.14.11Zm4.51-8.36.1-.08-.1.08Z"/><path class="cls-14" d="M246.14,710.54a6.13,6.13,0,0,0,3.4.81,5.85,5.85,0,0,0,2.88-1.06c.44-.3.84-.64,1.26-1a8.41,8.41,0,0,0,1.44-1.7q.25-.36.47-.75a19.29,19.29,0,0,0,1.14-2.44,35.57,35.57,0,0,0,1.27-3.71,59.69,59.69,0,0,0,1.64-17.16c-.1-3.58-.1-7.14.05-10.71.07-1.83.22-3.64.26-5.46a24,24,0,0,0,0-2.59c-.09-1-.26-2-.42-3a24.15,24.15,0,0,0-.5-4,4,4,0,0,0-2.77-2.77,4,4,0,0,0-2.11,0,3.78,3.78,0,0,0-2.37,1.83c-.24.56-.49,1.11-.67,1.69a8.5,8.5,0,0,0-.23,1.9c0,.58,0,1.15,0,1.73,0,1.29.13,2.58.2,3.87.14,2.73.53,5.47.91,8.17.19,1.53.36,3.07.48,4.61q.08,1,.11,2c-.11,1.32-.27,2.64-.44,4-.47,3.25-.92,6.51-1.29,9.77s-.59,6.31-1,9.44l0,.15c-.16.32-.34.63-.53.93l-.39.4h-.46l-1.14-.24a6.37,6.37,0,0,0-1.7-.25h0a2.1,2.1,0,0,0-2,1.55,3,3,0,0,0-.06.6c0,1.57,1.28,2.7,2.61,3.47Zm2.94-5.21.11-.09h0l-.1.07Zm.11-.08v0l.19-.14-.2.16Zm2.67-32.13.1.73c0-.24-.07-.49-.1-.73Z"/><path class="cls-14" d="M215.13,671.66c.67,1.22,1.26,2.49,1.84,3.75.43,1.09.81,2.2,1.22,3.3s.92,2.36,1.31,3.56.81,2.61,1.22,3.91a34,34,0,0,1,.89,3.79c.26,1.33.53,2.66.84,4s.71,2.68,1.09,4c.52,1.78,1.09,3.55,1.61,5.34q.07.82.14,1.64c.23,2.35.62,4.69,1,7l-.12-.13h0a2.29,2.29,0,0,0-1.67-.71,2.39,2.39,0,0,0-1.69.7,2.29,2.29,0,0,0-.7,1.68,5.42,5.42,0,0,0,.27,1.25,12.81,12.81,0,0,0,.53,1.22,11.72,11.72,0,0,0,1.54,2.17,5.78,5.78,0,0,0,2.87,1.86,4.31,4.31,0,0,0,3.12-.45,6.29,6.29,0,0,0,2.09-2.1,7.35,7.35,0,0,0,.91-2.18,16.38,16.38,0,0,0,.47-2.56c.08-.63.12-1.26.16-1.89a15.27,15.27,0,0,0-.21-2.75,58.16,58.16,0,0,0-1.63-7.52c-.75-2.66-1.73-5.21-2.72-7.78-.74-1.94-1.38-3.91-2-5.88s-1.48-3.86-2.19-5.81a54.77,54.77,0,0,1-1.83-5.86,19.64,19.64,0,0,0-1.13-3.5c-.23-.49-.45-1-.72-1.41a15.28,15.28,0,0,0-1.21-1.73l-.48-.62a3.12,3.12,0,0,0-1.34-.78,3,3,0,0,0-2.34.31,3,3,0,0,0-1.49,2.62,3.24,3.24,0,0,0,.39,1.54Z"/><path class="cls-14" d="M189.09,690.31c1.68,2.88,4.45,4.88,6.56,7.42l.41.55a3,3,0,0,0,.75,2.87c.7.74,1.36,1.5,2,2.28a46.4,46.4,0,0,1,3.54,5.46c1.18,2.14,2.33,4.29,3.58,6.38s2.32,4,3.44,6,2.09,3.92,3,6c.19.47.36.94.5,1.42h0l-.11.07-.18.06a2.22,2.22,0,0,0-1.3.94,1.87,1.87,0,0,0,0,1.93c.75,1.18,2.26,1.28,3.51,1a6.77,6.77,0,0,0,1.28-.4,4.78,4.78,0,0,0,1.29-.73,6.11,6.11,0,0,0,1.15-1.28,5.27,5.27,0,0,0,.82-2.14,8.09,8.09,0,0,0,0-3,16.23,16.23,0,0,0-1-3.34c-.6-1.49-1.33-2.92-2-4.37s-1.28-2.7-1.93-4c-.57-1.15-1.19-2.27-1.79-3.39s-1.32-2.44-2-3.61a65.12,65.12,0,0,0-5.21-7.48c-.91-1.08-1.88-2.14-2.85-3.16s-2-2-3-3-1.91-2.12-2.86-3.17c-.42-.46-.84-.92-1.25-1.39a10.8,10.8,0,0,0-2.23-2,3,3,0,0,0-4.06,4.06Zm23.7,38.5.1-.14h0l-.11.14Zm.13-.33,0,.1h0v-.1Zm0,.54,0-.17a1.16,1.16,0,0,1,0,.17Zm0-.41h0Z"/><path class="cls-14" d="M201.8,725.38c.73.83,1.4,1.71,2.18,2.5a16.9,16.9,0,0,0,2.44,1.93l2.18,1.57c1,.67,1.93,1.3,2.94,1.89a2,2,0,0,0,2-3.5c-.92-.54-1.8-1.11-2.67-1.73a26.68,26.68,0,0,0-3.1-2.29c-1.44-.84-2.74-1.9-4.19-2.72a1.51,1.51,0,0,0-1.82.24,1.42,1.42,0,0,0-.44,1,1.65,1.65,0,0,0,.44,1.09Z"/><path class="cls-14" d="M212.27,696.54c.32,1.08.71,2.14,1.1,3.19s.65,1.84,1,2.74A21.13,21.13,0,0,0,215.6,705c.42.75.84,1.48,1.25,2.24s.73,1.41,1.11,2.11.91,1.6,1.36,2.4.9,1.55,1.41,2.27,1.17,1.66,1.73,2.51a1.31,1.31,0,1,0,2.26-1.32c-.77-1.19-1.45-2.43-2.12-3.69s-1.23-2.35-1.77-3.57c-.37-.92-.61-1.87-.9-2.81s-.58-1.86-.92-2.77a57,57,0,0,0-3.57-7.17,1.73,1.73,0,0,0-2-.79,1.77,1.77,0,0,0-1.28,1.68,1.6,1.6,0,0,0,.06.44Zm8.42,11.1c0,.09.08.18.12.27l-.12-.27Z"/><path class="cls-15" d="M364.94,650.36a6.29,6.29,0,0,0,2.73,1.64c.65.27,1.33.49,2,.73,1.23.44,2.49.81,3.76,1.15,2.74.73,5.49,1.38,8.23,2.05s5.62,1.4,8.41,2.15,5.48,1.39,8.21,2.1c5.52,1.45,11,3,16.58,4.34,2.61.64,5.24,1.3,7.84,2,2.85.79,5.71,1.6,8.57,2.36,2.22.58,4.44,1.15,6.66,1.69a3.42,3.42,0,0,0,4.15-2.36,3.37,3.37,0,0,0-2.36-4.14c-6-2-12-3.84-18-5.44-2.82-.75-5.65-1.41-8.48-2.11-2.65-.65-5.28-1.31-7.94-1.9s-5.19-1.14-7.79-1.62-5.09-.89-7.64-1.32-5.35-.92-8.05-1.31-5.11-.68-7.67-1l.19,0-.37-.05-.23,0h.1l-.48-.07.81-.08a.66.66,0,0,0,0-1.33q-2.05.2-4.11.37c-.61.05-1.22.09-1.83.12l-.4,0-.19,0a8.71,8.71,0,0,0-.89-.1l-.74-.05h-.15a1.26,1.26,0,0,0-.9.36,1.18,1.18,0,0,0-.37.85,1.57,1.57,0,0,0,.37,1Zm9-1,.18,0-.31,0,.13,0Z"/><path class="cls-15" d="M356,649.88a4.65,4.65,0,0,0,2.58,2c2.65,1,5.29,2,8,2.76,2.29.68,4.6,1.33,6.9,2,4.65,1.27,9.31,2.45,14,3.62s9.25,2.39,13.86,3.62,9.23,2.67,13.83,4.06,9.23,2.82,13.9,4.09,9.42,2.45,14.12,3.71c9.13,2.45,18.22,4.95,27.44,7,4.85,1.08,9.67,2.26,14.5,3.41,4.4,1,8.75,2.28,13.11,3.48,9.19,2.5,18.44,4.77,27.63,7.27,8.54,2.32,17,4.75,25.69,6.64a4.26,4.26,0,0,0,2.26-8.22c-5.17-1.54-10.29-3.17-15.45-4.75-4.59-1.4-9.22-2.62-13.85-3.89s-9.42-2.41-14.13-3.62c-4.45-1.15-8.89-2.33-13.32-3.58-9.15-2.58-18.41-4.83-27.67-7-9.51-2.21-18.92-4.79-28.36-7.35-4.44-1.2-8.91-2.32-13.33-3.58-4.77-1.35-9.52-2.75-14.3-4.07-9.13-2.53-18.36-4.67-27.6-6.74-3.82-.86-7.62-1.83-11.39-2.84-2.27-.61-4.52-1.26-6.78-1.92s-4.53-1.55-6.76-2.39a4.17,4.17,0,0,0-3.33.44,4.33,4.33,0,0,0-2,2.57,4.4,4.4,0,0,0-.15,1.14,4.35,4.35,0,0,0,.59,2.19Z"/><path class="cls-15" d="M355.53,660.31l2.3,1.68a12,12,0,0,0,5.74,1.46c1.27.12,2.54.25,3.81.39,4.24.65,8.46,1.37,12.63,2.33,4.5,1,9,2,13.51,2.95,4.87,1,9.71,2.1,14.59,3.05s9.52,1.75,14.26,2.7c9,1.78,18,3.29,26.95,5,4.72.92,9.42,2,14.15,2.87s9.25,1.7,13.85,2.62c9.35,1.89,18.6,4.09,27.89,6.25s18.68,4.09,28.08,5.86,18.52,3.62,27.72,5.78,18,5,26.95,7.71c9.26,2.75,18.62,5.25,27.76,8.35,9,3.05,17.76,6.46,26.82,9.23s18.16,5.29,27.46,7.29a288.48,288.48,0,0,0,28.72,5,128.06,128.06,0,0,0,27.33-.15q8.15-.84,16.26-2c4.52-.64,9-1.58,13.44-2.49,9.24-1.89,18.51-3.63,27.74-5.52S802,727.48,811.24,726a162.11,162.11,0,0,0,18.88-4.07c5.71-1.64,11.35-3.58,17.21-4.74s11.64-2,17.44-3.07c1.86-.34,3.68-.8,5.51-1.27.76-.19,1.51-.35,2.28-.51a9.63,9.63,0,0,0,6.27-4.24c2.84-4.45-.76-11.07-6.55-10.75h-.17a38.51,38.51,0,0,0-6.82.16q-5.66.47-11.32.85a114.06,114.06,0,0,0-14.31,1.73c-4.06.8-8,1.91-12,3-8.63,2.4-17.43,4.31-26.29,5.84-9,1.57-18.15,2.67-27.19,4.22-6.33,1.1-12.67,2.1-19,3.2-6.5,1.13-13,2.41-19.49,3.32a207.18,207.18,0,0,1-24.41,1.76,225.83,225.83,0,0,1-25.24-1,175.33,175.33,0,0,1-24.83-5.73c-9-2.67-17.94-5.31-26.81-8.29-9.33-3.13-18.73-6-28.18-8.87-8.93-2.68-18-5.16-27.09-7.28s-18.29-3.83-27.39-5.95-18.17-4-27.26-6.08c-9.54-2.13-19-4.48-28.54-6.64s-18.82-4.18-28.17-6.48c-8.29-2-16.53-4.32-24.78-6.51-8-2.11-16-4.16-24-6.11-4.49-1.09-8.92-2.31-13.42-3.36-4.27-1-8.57-1.76-12.87-2.59C383,644.67,373.4,643,363.58,642c-2.86-.27-6.1,1.31-8,3.14a10.27,10.27,0,0,0,0,15.14Zm381.75,59.18.88-.11-.88.11Z"/><path class="cls-15" d="M549.52,702.64a103.06,103.06,0,0,0,14.39,7.42c4.08,1.66,8.23,3.11,12.29,4.78,6.68,2.82,13.36,5.62,20.12,8.22,7.34,2.82,14.81,5.15,22.21,7.76s14.82,5.58,22.38,7.91c3.75,1.14,7.49,2.32,11.33,3.15a116.38,116.38,0,0,0,13,2.1c3.63.38,7.27.58,10.91.78s6.85-3.27,6.85-6.85a7,7,0,0,0-6.85-6.85c-3.41-.18-6.81-.42-10.21-.81a71.69,71.69,0,0,1-14.62-4.12c-5-2-9.94-3.91-14.9-5.92s-10-4.09-15.11-5.87-10-3.5-14.85-5.52c-8-3.46-15.84-7.27-24-10.27-9-3.33-18.43-5.58-27.46-8.91-3-1.09-6.54.7-8,3.28a7,7,0,0,0-1,3.53,7.27,7.27,0,0,0,3.51,6.2Zm58,6.63.55.23-.55-.23Zm56.86,20.79.84.11-.84-.11Z"/><path class="cls-16" d="M113.83,637.09c8.75-.29,17.48-.8,26.23-1.13s17.27-.12,25.9,0c8.91.16,17.82.19,26.74.2s17.68-.83,26.52-1.4c6.69-.43,13.38-.68,20.09-.87s13.66-.38,20.49-.24,13.54.43,20.3.8c6.17.33,12.28,1,18.4,1.75,8.22,1.13,16.44,2.37,24.72,3,7.54.61,15.12.76,22.64,1.59,1.59.24,3.17.5,4.75.77,1.88.31,3.76.62,5.65.84a18.92,18.92,0,0,0,5.6-.48c3-.56,5.52-3.48,6.3-6.31A9.08,9.08,0,0,0,364,625.49a17.17,17.17,0,0,0-4.54-2c-1-.2-1.94-.35-2.92-.49-2.89-.4-5.79-.81-8.69-1.14-4.08-.46-8.19-.76-12.29-1-8.7-.43-17.36-1-26-2.05s-17.17-2.3-25.78-3.24c-9-1-18.12-1.9-27.19-2.17s-18.19-.26-27.27.05-17.85.93-26.78,1.49c-8.64.55-17.33.44-26,.73-9,.3-17.94.5-26.86,1.49-5,.56-10,1.34-15,2.27-4.1.79-8.16,1.78-12.28,2.46-2.87.32-5.73.49-8.63.59a7.26,7.26,0,1,0,0,14.52Z"/><path class="cls-17" d="M365.34,630.85a8,8,0,0,0-1.2-6.82c2.12-4.38,1.16-9.55.1-14.13a48.7,48.7,0,0,0-2.92-8.22l-.91-1.51q-1.4-1.9-2.84-3.74a38.21,38.21,0,0,0-6.13-5.36,10.71,10.71,0,0,0-1.87-.9c-1.23-.55-2.49-1-3.74-1.56-1.09-.45-2.2-.81-3.3-1.18-2.28-.75-4.65-1.32-7-1.85a189.84,189.84,0,0,0-33.17-4.27c-5.62-.25-11.28,0-16.9.17-5.81.17-11.6.57-17.38,1.11-11.79,1.09-23.65,2.42-35.3,4.5-5.34.94-10.61,2.15-15.87,3.48s-10.45,2.42-15.71,3.52-10.46,2.27-15.74,3.16c-5.5.92-10.94,2.05-16.38,3.21-5.2,1.11-10.35,2.37-15.55,3.44-5.38,1.13-10.8,2.11-16.08,3.68-9.82,2.94-19.39,6.58-29.21,9.5a9.17,9.17,0,0,0-6.6,8.7,8.82,8.82,0,0,0,.32,2.34,8.72,8.72,0,0,0,1.09,2.42,4.91,4.91,0,0,0-.38,1.84,5.13,5.13,0,0,0,5,5c8.12.53,16.27,1,24.4.76,3.81-.11,7.62-.29,11.42-.55,4.52-.31,9-1,13.46-1.62l3.06-.42c6.16.17,12.31.35,18.47.64,7.59.34,15.18,1,22.78,1.35,7.37.32,14.72.89,22.08,1.27s15,.77,22.42,1.26c3.85.25,7.7.56,11.55.84,3.61.26,7.22.3,10.84.31h7.62c.17,0,.33.11.51.15,8.45,1.89,16.76,4.19,25.1,6.46,3.81,1,7.55,2.08,11.43,2.77A109.25,109.25,0,0,0,327,652.16a37.2,37.2,0,0,0,5.16-.22c3-.29,6.25-.84,8.78-2.67,2.21-1.59,4.27-3.27,5.4-5.85a13.11,13.11,0,0,0,1.7-5.05c4.14-.21,8.29-.42,12.43-.59a5,5,0,0,0,5-5,4.77,4.77,0,0,0-.23-1.46C365.25,631.18,365.3,631,365.34,630.85Z"/><path class="cls-18" d="M756.21,459.89a6.2,6.2,0,0,1-1.71,3.24,6.36,6.36,0,0,1-3.95,1.76,7.57,7.57,0,0,1-2.59.29c-11.82,1.29-23.7,1.95-35.54,3-12.77,1.16-25.53,2.45-38.32,3.51-7.32.61-14.66,1.06-22,1.73S637.28,475,629.88,476s-14.89,1.67-22.34,2.45c-7.72.81-15.44,1.56-23.22,1.68a8,8,0,0,1-7.94-7.94v-.09a6.21,6.21,0,0,1-.55-2.49,6.35,6.35,0,0,1,1.87-4.48,6.76,6.76,0,0,1,4.48-1.86c6.29-.56,12.55-1.37,18.82-2.06l2-.23a15.6,15.6,0,0,1-2.4-3.8,26.18,26.18,0,0,1-2.18-15.94A35.76,35.76,0,0,1,604.22,428a24.27,24.27,0,0,1,4.63-5.42,45.6,45.6,0,0,1,7.66-5.36,39,39,0,0,1,10.17-3.76c1.82-.36,3.66-.64,5.5-.83a18.89,18.89,0,0,1,3.44-.19,37.38,37.38,0,0,1,5.19.66,24,24,0,0,1,4.8,1.72,18.76,18.76,0,0,1,2.17,1.18c.06-.18.1-.37.16-.56A33.82,33.82,0,0,1,658,400.25a44.05,44.05,0,0,1,12.7-7.52,46.44,46.44,0,0,1,8.51-2.43,37,37,0,0,1,10.18-.5,33.21,33.21,0,0,1,12,3.63,44.16,44.16,0,0,1,4.63,2.76,39.82,39.82,0,0,1,5.43,4.37,57.2,57.2,0,0,1,4.53,5.29,34.05,34.05,0,0,1,3.27,4.82,48.53,48.53,0,0,1,4.69,11.5,59.54,59.54,0,0,1,1.12,6.65,25.07,25.07,0,0,1,.28,4.82A30.79,30.79,0,0,1,722.84,445c2.58.05,5.16.1,7.73.18a126.18,126.18,0,0,1,13.3,1.27,30.81,30.81,0,0,1,5.79,1.42c3.13,1.07,6,3.16,6.91,6.5A8.74,8.74,0,0,1,756.21,459.89Z"/><path class="cls-18" d="M681.95,432.24a14.76,14.76,0,0,0,.83,1.55,10.41,10.41,0,0,0,10.87,4.84,9.62,9.62,0,0,0,11-9.53c.32-3.4-.79-6.45-1.69-9.66A9.72,9.72,0,0,0,684.73,418a7.64,7.64,0,0,0-2.88,3.16,11.18,11.18,0,0,0-1.47,5.27,12.81,12.81,0,0,0,1.57,5.78Z"/><path class="cls-18" d="M559.77,553.17a5.36,5.36,0,0,0-4-1.64c-4.25.55-8.49,1.16-12.75,1.54a10.37,10.37,0,0,0,.66-7.44c-.83-2-1.36-3.76-3-5.27a17.46,17.46,0,0,0-3.32-2.53,19.41,19.41,0,0,0-5-2c-.92-.76-1.9-1.51-2.88-2.18-1.42-1-2.85-1.95-4.35-2.82a34.47,34.47,0,0,0-8.17-3.27,39.73,39.73,0,0,0-13.9-1.16,56.32,56.32,0,0,0-6.71.91,60.34,60.34,0,0,0-6.33,1.72,62.38,62.38,0,0,0-6.77,2.83c-1.7.78-3.32,1.72-5,2.6-.86-1.31-1.67-2.66-2.52-4a31.78,31.78,0,0,0-6.8-7.64,32.46,32.46,0,0,0-8-4.55,29.92,29.92,0,0,0-9.65-2.11,37.61,37.61,0,0,0-9.1.8,37.21,37.21,0,0,0-8.3,2.66,69.05,69.05,0,0,0-6.43,3.24c-.67.27-1.34.57-2,.91a23.3,23.3,0,0,0-8.87,7.91,21.27,21.27,0,0,0-3.24,9.63,17.44,17.44,0,0,0-.09,1.76,20.45,20.45,0,0,0,2.15,8.92c.18.38.4.74.61,1.1-2.82.25-5.64.51-8.47.8a178,178,0,0,1-19,.71,9.19,9.19,0,1,0,0,18.38c8.07,0,16.06-.13,24-1.5,6.5-1.11,13-2.39,19.5-3.35a78.5,78.5,0,0,1,8-.27c2.47.05,4.92.33,7.38.62,4.51.62,9,1.23,13.57,1.47a75.84,75.84,0,0,0,14.9-.94c2.06-.31,4.11-.81,6.15-1.25,2.36-.49,4.73-.95,7.09-1.42,4.31-.85,8.61-1.69,13-2.39A121.61,121.61,0,0,1,515,563.1c4.32-.07,8.64.18,13,.33s8.74.39,13.1.44c2.35,0,4.67,0,7-.1a67.23,67.23,0,0,0,9.15-1.21c2.43-.43,4.12-3.09,4.12-5.41A5.64,5.64,0,0,0,559.77,553.17Zm-72-10-.15.23c-.83-.24-1.65-.53-2.46-.85l2.51-1.11c.22-.09.44-.16.66-.24A9.82,9.82,0,0,0,487.74,543.13Z"/><path class="cls-18" d="M294.31,447.66a17.61,17.61,0,0,1-.29,2.8,8.3,8.3,0,0,1-1.19,2.52,7.74,7.74,0,0,1-1.71,2,5.31,5.31,0,0,1-3.35,2.83,45.46,45.46,0,0,1-10.06,1.29c-2.09.12-4.18.19-6.27.27-4.58.19-9.17.39-13.75.56-5.44.22-10.88.49-16.31.69-5.23.17-10.46.05-15.69.1-11.35.09-22.68.63-34,1.2-5.59.3-11.17.69-16.75,1s-11.32.61-17,1-11.2.81-16.8,1.18c-4.6.3-9.2.46-13.8.54a4.71,4.71,0,0,1-3,.17l-.43-.13a4.77,4.77,0,0,1-2.76-.9,19.6,19.6,0,0,1-6.76-3.81,9.62,9.62,0,0,1-3-4.33,8.15,8.15,0,0,1-.31-2.22,5.16,5.16,0,0,1,1.36-3.72,4.64,4.64,0,0,1,3.16-1.39,4.94,4.94,0,0,1,2.34.63,18.75,18.75,0,0,1,2.3,2c.41.42.83.81,1.26,1.2,2.8-.1,5.6-.27,8.4-.58a31,31,0,0,0,5.93-1.54,42.08,42.08,0,0,0,7.45-3.94,18.42,18.42,0,0,0,1.9-1.95c2.22-3.24,3.8-6.84,5.85-10.19a78.26,78.26,0,0,1,8.16-10.93,40.2,40.2,0,0,1,6.65-6.06,44.62,44.62,0,0,1,11.36-6.15c1.34-.46,2.66-.89,4-1.25s2.48-.54,3.74-.78a61.23,61.23,0,0,1,9.47-.94,36.35,36.35,0,0,1,7.14.53,27.9,27.9,0,0,1,8.14,3.08,24.89,24.89,0,0,1,3.35,2.12,27.46,27.46,0,0,1,4.75,4.12,49.75,49.75,0,0,1,4,5.39c.62,1,1.18,2,1.78,3,1.19,2,2.42,4,3.76,5.84a32.15,32.15,0,0,0,2.82,2.78c.91.65,1.85,1.26,2.81,1.85a25.86,25.86,0,0,0,2.47,1.23,88.1,88.1,0,0,0,18,4.33c8,.81,16.1.93,24.16,1.25a7,7,0,0,1,2.42.53,11.85,11.85,0,0,0,.37-1.29c0-.22,0-.44,0-.66a13.25,13.25,0,0,0-.46-1.72,38.56,38.56,0,0,0-2.58-4.44c-1.24-1.82-3.08-3.94-2.19-6.31a4.39,4.39,0,0,1,6.32-2.57,16.92,16.92,0,0,1,4.53,3.79,43.41,43.41,0,0,1,3,3.73,18.26,18.26,0,0,1,2.3,3.94C292.92,441.86,294.34,444.64,294.31,447.66Z"/><path class="cls-19" d="M5.58,756.77a6.9,6.9,0,0,0,1.91,4.59,6.49,6.49,0,0,0,4.59,1.9,6.56,6.56,0,0,0,6.49-6.48c.25-27.27,1.73-54.52,3.61-81.73.45-6.52.73-13,1.11-19.57.42-7.13.9-14.23,1.51-21.35,1.14-13.34,2.55-26.69,4.07-40,1.59-13.82,3-27.66,4.46-41.5,1.41-13.62,3-27.25,3.85-40.91.43-7,.81-13.93,1.41-20.9s1.22-14.08,1.86-21.12c1.18-13.38,2.61-26.75,3.8-40.13s2-26.7,3-40,2.14-26.77,3.19-40.15c.63-8,1.31-16,2.26-24,.51-3.46,1.08-6.89,1.75-10.32.78-4,1.84-7.95,2.89-11.88a4.68,4.68,0,0,0-9-2.49c-1.85,6.89-3.52,13.81-4.8,20.82s-2.1,13.84-3,20.78c-1.69,13.46-2.82,27-4.16,40.47-1.22,12.19-2.55,24.35-4.07,36.5-2,14.16-4.17,28.29-6.09,42.46l0-.2c-1,7.12-1.85,14.26-2.7,21.38-.82,6.9-1.61,13.79-2.09,20.72s-.9,14.15-1.49,21.23c-.56,6.67-1.2,13.33-1.81,20-1.27,13.94-2.37,27.9-3.57,41.84-1.15,13.3-2.33,26.58-3.22,39.9-.92,13.93-1.46,27.86-1.86,41.81q-.28,10-.68,20.08c-.26,6.54-.4,13.07-.72,19.61-.38,8.24-.8,16.48-1.36,24.7-.26,3.84-.58,7.67-.85,11.51-.21,3.06-.52,6.14-.52,9.21,0,1.09,0,2.18.14,3.26ZM26.27,461.71l-.09.68.09-.68Zm-.09.68L26,463.5c.05-.37.1-.75.15-1.12Z"/><path class="cls-19" d="M66.49,815.8a8.24,8.24,0,0,0,8.14-8.15q.34-18.63.43-37.27c.07-11.68,0-23.37.15-35,.18-12.29.47-24.57,1-36.85.23-5.89.6-11.8.9-17.69q.5-9.43.9-18.86c.56-12,1.37-24,2-36,.6-12.52,1.32-25,2.05-37.54.71-12.21,1.33-24.42,1.74-36.66s.57-24.36,1-36.53c.46-11.74,1.37-23.47,2.21-35.18.86-12.11,1.54-24.23,2.36-36.34.7-10.11,1.63-20.19,2.52-30.28.84-9.51,2-19,3.25-28.44q1.55-11.45,3.13-22.9a3.35,3.35,0,0,0-.31-2.34,3.06,3.06,0,0,0-1.82-1.39c-1.44-.4-3.53.48-3.75,2.12-1.81,13.16-3.64,26.3-5.31,39.48-.76,6-1.34,12.1-1.92,18.16-.55,5.68-1.17,11.34-1.76,17-1.28,12.18-2.31,24.37-3.48,36.55s-2.62,24.2-3.81,36.3-1.78,24.36-2.49,36.55q-1,17.84-2.67,35.65c-2.28,24.57-4.79,49.12-6.63,73.73-.93,12.48-1.65,25-2.48,37.48-.77,11.72-1.21,23.47-1.55,35.21q-.51,18.38-.72,36.76c-.1,11.89-.53,23.76-1,35.64-.11,2.89-.21,5.8-.24,8.69v.09a8.23,8.23,0,0,0,8.16,8.07ZM95.15,384.58l0-.33c0,.11,0,.22,0,.33Z"/><path class="cls-19" d="M96.95,365.73c8.17.37,16.32.59,24.49.81,7.29.2,14.58.49,21.86.65,7.74.17,15.48.43,23.22.68s15.48.42,23.22.78c16.27.77,32.47,2.37,48.73,3.4,7.55.49,15.11.81,22.65,1.41q12,.95,24,2.1c7.71.75,15.43,1.34,23.16,1.9s15.48.86,23.23,1.21c7.95.37,15.89.56,23.85.84s16.13.66,24.21.94c15.86.56,31.73,1,47.6,1.25s31.77.39,47.64.56q48.06.5,96.1.4c16.4,0,32.81,0,49.21-.1,7.69-.07,15.37-.37,23.05-.66q12.45-.45,24.9-.64c8.08-.11,16.15-.2,24.23-.43,8.25-.23,16.5-.63,24.73-.91q23.94-.79,47.87-2c14.28-.73,28.54-1.73,42.8-2.85,7-.55,14-1.17,21-1.48,3.39-.16,6.78-.15,10.18,0a96.91,96.91,0,0,0,10.42,0,5.45,5.45,0,0,0,5.14-3.9,5.32,5.32,0,0,0-.54-4.11A5.06,5.06,0,0,0,850.8,363a44.81,44.81,0,0,0-6.76-.62c-1.89,0-3.79.19-5.68.28-3.59.2-7.18.31-10.77.4-7.72.2-15.44.55-23.16.83-15.61.56-31.24.84-46.85,1q-24.2.25-48.39,1c-8.23.25-16.44.52-24.67.65-7.94.12-15.88.12-23.82.22-8.24.11-16.48.38-24.71.68-7.78.28-15.56.3-23.35.29q-23.92,0-47.86-.09c-16.15-.05-32.3-.2-48.45-.15q-23.94.06-47.88.35c-15.86.19-31.73.39-47.6.46-16.19.05-32.36-.19-48.55-.52-7.67-.16-15.35-.4-23-.55-8-.16-16.07-.51-24.11-.81-15.81-.58-31.55-2.1-47.3-3.57s-31.56-2.17-47.35-3.29c-7.86-.55-15.73-1.13-23.6-1.57s-15.78-.59-23.69-.66c-7.18-.07-14.35-.05-21.53-.16S147.22,357,140,356.8c-6.8-.13-13.6-.43-20.4-.57-7.55-.16-15.1-.3-22.64-.63a5.07,5.07,0,1,0,0,10.14Z"/><path class="cls-19" d="M93.48,305.75c9.22,0,18.45-.17,27.67-.18,8.66,0,17.34.46,26,.92,17.58.94,35.09,2.46,52.7,2.82,36.39.74,72.77,1,109.17,1.13,18.07.06,36.16.11,54.22.6q27.39.75,54.8,1c9.29.11,18.57,0,27.86,0,9,0,18,.15,27.07.17s17.89.4,26.83.6c9.22.21,18.47.16,27.69.26,17.77.22,35.56.51,53.32,1.09,18.16.6,36.31,1.31,54.48,1.62,9.36.16,18.71.4,28.07.51,9.11.1,18.22.09,27.33.08,8.91,0,17.82-.1,26.74,0,9.72.16,19.44.39,29.15.61,8.84.2,17.67.32,26.5.64q14.19.5,28.37,1.14c18.06.81,36.13,1.79,54.2,2.32,16.1.47,32.2.52,48.32.47q12.54,0,25.1-.07c8.27,0,16.57.2,24.83-.22a7.78,7.78,0,0,0,7.68-7.68c0-4-3.5-7.86-7.68-7.68-9.25.42-18.54.23-27.81.22q-13.43,0-26.86-.13-27.34-.19-54.7-.86c-36.57-.87-73.15-1.22-109.72-2.06-18.4-.42-36.8-.45-55.21-.6-18-.15-36-.6-53.91-1.2s-36.18-1.6-54.27-2.31c-18.39-.73-36.77-1.53-55.16-2.13-9-.29-17.9-.61-26.84-1s-18.16-.64-27.24-.86-18.06-.56-27.1-.67-18-.18-27-.24c-18.46-.13-36.92-.09-55.36-.17-8.87,0-17.73.07-26.6.07-9.07,0-18.13,0-27.19.09-18.55.17-37.09.33-55.64.61-17.9.27-35.79.51-53.69.39-15.87-.11-31.74-.81-47.61-.46-7.58.17-15.14.66-22.72.6-8.57-.06-17.14-.16-25.7-.16a5.31,5.31,0,0,0,0,10.62Z"/><path class="cls-19" d="M889,623.83c.64,24.57,1.36,49.13,2,73.7.4,17,.33,34.05.26,51.09q0,11-.06,22c0,9.28.06,18.56-.25,27.84-.17,4.81-.37,9.63-.58,14.44a116.27,116.27,0,0,0,0,15,6.85,6.85,0,0,0,1.9,4.61,6.51,6.51,0,0,0,11.12-4.61c-.07-6.46-.19-12.92-.39-19.38-.18-5.79-.36-11.59-.44-17.38-.11-8.46-.11-16.92-.1-25.38,0-3.9,0-7.81,0-11.71q0-18.16-.11-36.32c0-12,0-23.92-.12-35.87-.15-12.34-.24-24.67-.4-37-.18-12.6-.7-25.19-.9-37.8-.21-12.21-.32-24.43-.65-36.66s-.64-24.35-.59-36.53q.09-18.71,1-37.37c.57-11.85,1.45-23.69,2.26-35.53.64-9.18,1-18.37,1.76-27.56.78-9.6,1.62-19.17,2.82-28.73a6,6,0,0,0-1.85-4.47,6.35,6.35,0,0,0-9,0c-.32.44-.65.86-1,1.29a6.25,6.25,0,0,0-.86,3.19c-.79,6.33-1.48,12.65-1.89,19q-.56,8.64-1.09,17.29c-.35,5.91-.66,11.83-1.11,17.73-.47,6.16-.89,12.31-1.09,18.48-.39,12.24,0,24.49.23,36.72q.39,17.93.1,35.85c-.21,12.36-.6,24.69-.82,37-.14,8.07-.29,16.15-.29,24.23,0,4.27,0,8.54.15,12.81Z"/><path class="cls-19" d="M950.29,570.75q0,11.58.21,23.15c.1,8.31.3,16.63.22,24.94s-.22,16.88-.33,25.32c-.11,7.91-.17,15.79.15,23.69.31,7.65,1,15.27,1.55,22.9.79,12.07.71,24.14.63,36.21,0,3.8-.05,7.61-.05,11.39,0,5.32,0,10.63-.07,15.95,0,6.76-.09,13.53-.06,20.28,0,5.93.07,11.86-.24,17.79-.16,3-.46,6-.83,9a63,63,0,0,0-.74,8.94,6.31,6.31,0,0,0,10.77,4.47,6.91,6.91,0,0,0,1.86-4.47c.53-4.1.71-8.22,1-12.35.25-3.79.46-7.58.6-11.37.3-7.89.25-15.78.27-23.67,0-3.17,0-6.37,0-9.56,0-4.85-.08-9.7,0-14.55.15-7.92.39-15.84.7-23.75s.64-15.75.92-23.62.35-15.58.32-23.4.15-15.6.26-23.41c.12-8.46.2-16.92.29-25.38.19-16.05.48-32.1.72-48.15q.19-12.67.46-25.33c.17-8.18.5-16.34.68-24.51q.58-24.26.94-48.53c.08-4.81.08-9.64.07-14.46q0-4.72,0-9.43c.05-7.66.27-15.29.32-22.94.09-12,.39-24,1.39-36,.5-5.84,1.15-11.67,1.67-17.51.59-6.67,1.1-13.34,1.71-20,.32-3.59-3.26-6.61-6.61-6.61a6.61,6.61,0,0,0-4.67,1.94,7,7,0,0,0-1.94,4.67c-.77,8.49-1.35,17-2.09,25.47-.7,7.92-1.43,15.82-1.84,23.75-.2,3.91-.27,7.81-.47,11.71s-.52,7.91-.83,11.86c-.6,7.73-1.32,15.47-1.69,23.22-.79,16-1.7,32-2.57,48-.45,8.22-.8,16.44-1.15,24.66s-.94,16.36-1.29,24.55c-.19,4.61-.24,9.23-.24,13.84,0,3.76,0,7.52,0,11.28Z"/><path class="cls-19" d="M323.28,926.51a124.74,124.74,0,0,0,2.26,17c1.27,5.54,2.76,11,4.22,16.52a5,5,0,1,0,9.67-2.68,159.42,159.42,0,0,1-3.66-16.62,123.44,123.44,0,0,1-.35-15.68q.26-8.47.61-16.93c.43-10.77,1-21.48,2.3-32.18.66-4.5,1.42-9,2.38-13.44A77.05,77.05,0,0,1,344.54,850a103.06,103.06,0,0,1,6.07-11.59c2.43-3.9,4.94-7.71,7.68-11.4q2.53-3.15,5.2-6.19c2.12-2.38,4.54-4.5,6.88-6.66,4-3.71,8.1-7.35,12.36-10.78,4.55-3.25,9.32-6.11,14.09-9a146.79,146.79,0,0,1,15.58-8.19A121.63,121.63,0,0,1,424,781.93c4.7-1.4,9.45-2.52,14.26-3.55s9.42-1.75,14.16-2.49,9.66-1.57,14.5-2.28c3-.37,6-.69,9-.91,3.54-.26,7.1-.28,10.65-.33a150.24,150.24,0,0,1,21.32,1.53c4.09.57,8.14,1.22,12.2,2s8.3,1.9,12.44,2.91c8.85,2.13,17.72,4.32,26.34,7.3,2.18,1,4.33,2,6.48,3,2.48,1.25,4.87,2.7,7.22,4.16C577,796,581.2,799,585.32,802.1c6.81,5.59,13.33,11.49,20,17.18,3.19,2.7,6.44,5.32,9.64,8q-3.91-.36-7.83-.67c-6.05-.48-12.1-.85-18.13-1.51a22.53,22.53,0,0,0-4.82-.73,6.94,6.94,0,0,0-4.8,2,6.52,6.52,0,0,0-2,4.8c.09.82.2,1.65.32,2.47a14.22,14.22,0,0,0,1,2.22,16.46,16.46,0,0,0,1.18,1.73,46.85,46.85,0,0,0,3.17,3.84c1.87,2.11,3.68,4.26,5.51,6.41,3.38,4,7.21,7.57,10.86,11.31s7.11,7.23,10.68,10.84l1.16,1.18c-4.36-.67-8.69-1.47-13.06-2.11-1.65-.24-3.31-.51-5-.68a10.4,10.4,0,0,0-6.28,1,8.58,8.58,0,0,0-4,9.44,12.07,12.07,0,0,0,.43,2c.16.61.37,1.22.58,1.83.43,1.26.88,2.51,1.33,3.77,3.58,10,5.51,20.56,7,31.06.62,5,1.06,10,1.25,15.05a104.18,104.18,0,0,1-.75,16.06c-.72,4.49-1.7,8.93-2.73,13.37-1.15,4.93-2.58,9.77-3.41,14.77a7.7,7.7,0,0,0,.72,5.53,7.18,7.18,0,0,0,13.11-1.72,115.06,115.06,0,0,0,2.89-11.19c.71-3.24,1.41-6.47,2.05-9.72a136.21,136.21,0,0,0,2.69-22.55,160,160,0,0,0-1.1-21,182.43,182.43,0,0,0-3.6-22.19c-.74-3.12-1.6-6.18-2.57-9.23l0-.12c4.48.59,9,1.09,13.48,1.37a46.11,46.11,0,0,0,12.31-.51c2.59-.54,5.53-2.75,6.11-5.47a8.23,8.23,0,0,0,.11-4.11,9.45,9.45,0,0,0-2-3.58c-1.25-1.5-2.65-2.87-4-4.3-2.37-2.53-4.53-5.24-6.81-7.84s-4.6-5.09-6.78-7.74c-2.34-2.84-4.66-5.71-7.1-8.47-2-2.3-4.15-4.48-6.21-6.72,2.35,0,4.7.1,7,.17,3.66.1,7.32.34,11,.59,1.74.11,3.48.24,5.22.28.84,0,1.68,0,2.52.05,1.79,0,3.8.22,5.5-.39a5.48,5.48,0,0,0,3.74-6.59c-.52-2.39-2.58-4.18-4.25-5.86-1.26-1.27-2.49-2.54-3.72-3.83-2.4-2.49-4.83-5-7.34-7.37-5-4.83-10.05-9.67-15.23-14.35a190.91,190.91,0,0,0-17.71-14.75c-6.15-4.34-12.46-8.55-19.41-11.51-2.13-.9-4.24-1.81-6.43-2.53-2-.65-3.91-1.2-5.89-1.75-3.56-1-7.15-1.84-10.74-2.74s-6.91-1.7-10.36-2.53c-3.3-.79-6.6-1.64-9.93-2.27-7.85-1.48-15.79-2.42-23.73-3.38a163.56,163.56,0,0,0-21.86-.87,183,183,0,0,0-21.56,1.89c-7.68,1-15.38,1.9-23,3.36a133.93,133.93,0,0,0-20.95,5.44,161.83,161.83,0,0,0-21.49,9.72c-3.16,1.71-6.24,3.61-9.35,5.43s-5.89,3.6-8.73,5.59a112.15,112.15,0,0,0-9.21,7.53q-4.16,3.66-8.2,7.44a92.55,92.55,0,0,0-14.59,17.93,127.16,127.16,0,0,0-9.65,18.29,114.77,114.77,0,0,0-4.37,11.5,91.91,91.91,0,0,0-2.39,10.29,168.27,168.27,0,0,0-2.66,22q-.37,6.78-.36,13.59c0,9.69.52,19.39,1.37,29Zm12.32,13c0,.26.08.53.11.79l-.11-.79ZM465.35,773.81l1.06-.14-1.06.14ZM592.17,915.89l.07.53-.07-.53Z"/><path class="cls-19" d="M206.75,915.51a2.29,2.29,0,0,0,2.26-2.26c.1-6.73.06-13.47.08-20.2q0-4.48.07-9c0-3.2.06-6.39.27-9.58s.55-6.37.79-9.56l.75-10.16c.47-6.39.77-12.78,1.42-19.16.24-2.32.52-4.65.82-7l-.07.47.09-.66,0-.16v.11c.84-5.86,1.77-11.71,2.88-17.52.59-3.08,1.27-6.13,2-9.17a88.73,88.73,0,0,0,1.81-8.7c.07-.47.13-.94.22-1.41a3.84,3.84,0,0,0-.37-2.79,3.58,3.58,0,0,0-2.17-1.67,3.66,3.66,0,0,0-4.46,2.53,33.68,33.68,0,0,0-.93,4.64c-.22,1.44-.51,2.87-.8,4.31-.63,3.08-1.25,6.16-1.81,9.27-1.13,6.29-1.85,12.63-2.38,19s-.83,12.9-1,19.35-.45,12.82-.86,19.24c-.21,3.13-.56,6.26-.66,9.4s-.15,6.39-.12,9.59c0,6.33.07,12.65,0,19,0,3.28-.06,6.55-.11,9.82v0a2.27,2.27,0,0,0,2.25,2.23Zm6.49-87.09v0l0,.18,0-.23Z"/><path class="cls-19" d="M215.61,790.21a2.62,2.62,0,0,0,1.67.68c1.37.18,2.75.33,4.13.46s2.54.11,3.81.17c2.77.09,5.52.27,8.28.46,2.53.18,5.07.26,7.62.42s5,.38,7.48.69c2.21.32,4.42.69,6.63,1.06s4.66.63,7,.83c4.54.39,9.09.88,13.62,1.48l-.5-.07,3.48.46-.73-.09c2.25.31,4.5.66,6.73,1.07,1.13.2,2.26.4,3.39.58.81.13,1.63.23,2.45.32a10.67,10.67,0,0,0,2,0,3.1,3.1,0,0,0,2.68-4.67,3.27,3.27,0,0,0-1.86-1.42,12.48,12.48,0,0,0-2.81-.67c-.7-.09-1.38-.17-2.09-.21-1.33-.08-2.67-.15-4-.2-2.85-.1-5.7-.12-8.54-.23s-5.64-.28-8.46-.56c-2.66-.27-5.33-.51-8-.83-1.44-.23-2.88-.5-4.32-.78s-2.86-.63-4.31-.88a93.66,93.66,0,0,0-9.75-1.17c-2.95-.19-5.9-.2-8.86-.27s-6,0-9-.09a57.29,57.29,0,0,1-6.11-.49,2.25,2.25,0,0,0-1.67.68,2.36,2.36,0,0,0-.68,1.66,2.4,2.4,0,0,0,.68,1.67Zm60.44,6.26-.19,0,.19,0Z"/><path class="cls-19" d="M272.94,956.91A4.71,4.71,0,0,0,280,961a4.51,4.51,0,0,0,2.17-2.81c.18-1.26.36-2.51.43-3.77,0-.83.06-1.66.08-2.5.05-1.65.12-3.29.22-4.94.2-3.35.44-6.7.62-10.05.34-6.46.77-12.93,1.21-19.38.24-3.42.54-6.84.74-10.26.2-3.24.19-6.48.25-9.72.15-6.84.63-13.65,1.22-20.46q.82-9.63,1.74-19.27c.65-6.79,1.16-13.58,2-20.35.25-2.18.54-4.35.83-6.52l0,.18c.72-5,1.55-10.08,2.23-15.13h0l.05-.37c0,.08,0,.15,0,.23v-.13c0-.13,0-.26.05-.39s0-.08,0-.12.06-.35.08-.53,0-.23,0-.34v-.12c0-.05,0-.1,0-.15l0-.21c0-.11,0-.21,0-.3v.08l0-.15h0c.39-2.88.74-5.78,1-8.67.4-3.78.7-7.55,1-11.34a1.39,1.39,0,1,0-2.78,0c-.21,2.92-.36,5.84-.67,8.76-.27,2.6-.56,5.21-.89,7.8,0-.11,0-.24,0-.36-1,6.61-2.26,13.17-3.49,19.73-.6,3.26-1.23,6.51-1.84,9.76s-1.06,6.41-1.53,9.63c-1.94,13.29-4,26.57-5.48,39.92q-.58,5.2-1,10.4c-.27,3.47-.49,6.93-.82,10.4-.3,3.17-.72,6.34-1.06,9.5s-.67,6.62-1,9.92c-.49,4.49-.82,9-1.3,13.5-.51,4.72-1.29,9.46-1.29,14.22,0,.09,0,.18,0,.28Zm21.12-143.57s0-.06,0-.08v.08ZM294,814v.17l0-.17Z"/><path class="cls-19" d="M177.9,729.65a11.64,11.64,0,0,0,3.54,6.24,17,17,0,0,0,1.79,1.55,14.21,14.21,0,0,0,1.54,1.09,36.53,36.53,0,0,0,4.41,2.11c2.39,1,4.82,1.86,7.28,2.66s4.92,1.72,7.34,2.73c5.6,2.53,10.61,6.11,15.49,9.8a37.81,37.81,0,0,1,5.59,5.4,20.59,20.59,0,0,1,2,3.44A24.59,24.59,0,0,1,228,769.5a89.28,89.28,0,0,1,.25,9.48c0,1.61-.08,3.2-.15,4.79,0,.82-.05,1.64-.08,2.46,0,.37,0,.75-.05,1.13a17.62,17.62,0,0,0,.21,2.66,2.93,2.93,0,0,0,1.4,1.82,3,3,0,0,0,4.48-3.44,25.87,25.87,0,0,1-.55-2.94c-.65-5.32-.27-10.71-.74-16a34.88,34.88,0,0,0-.76-4.52,15.87,15.87,0,0,0-1.69-4.15,24.73,24.73,0,0,0-5.51-6.42,68.25,68.25,0,0,0-7-5.09q-3.44-2.32-7-4.51c-2.42-1.5-4.86-2.93-7.4-4.21s-5.24-2.3-7.91-3.33c-2.17-.83-4.34-1.65-6.48-2.53a31.25,31.25,0,0,1-5.08-2.88,10.86,10.86,0,0,1-1.38-1.37,8.29,8.29,0,0,1-.58-1,7.42,7.42,0,0,1-.23-.92,16.69,16.69,0,0,1,.06-3.4,45.93,45.93,0,0,1,2.46-8.81c.11-.25.23-.5.36-.75l1.61,1.28a64.09,64.09,0,0,0,6.94,4.69c2.37,1.38,4.81,2.65,7.26,3.87s5,2.37,7.56,3.45c.7.3,1.38.61,2.09.87.44.17.87.33,1.32.47a4.57,4.57,0,0,0,3.53,0,3.16,3.16,0,0,0,1-1,2.88,2.88,0,0,0,.33-1.47,5.34,5.34,0,0,0-.8-2.26c-.3-.61-.6-1.23-.88-1.87l-.3-.71c-1.09-2.61-2.15-5.23-3.43-7.77a67.84,67.84,0,0,0-4.16-7c-1.56-2.37-3.08-4.75-4.73-7.06s-3.24-4.38-4.87-6.56a42.2,42.2,0,0,1-4-6.56,10,10,0,0,1-.38-1.3,8.47,8.47,0,0,1,0-1,6.63,6.63,0,0,1,.3-1.1,11.6,11.6,0,0,1,.9-1.51,10.09,10.09,0,0,1,1.06-1,22.28,22.28,0,0,1,4.06-2.29,9.91,9.91,0,0,1,1.54-.49h.43l.15,0,.1.06a13.34,13.34,0,0,1,1.56,1.67,34.41,34.41,0,0,1,1.84,3c.65,1.17,1.34,2.33,2,3.51,1.32,2.28,2.76,4.48,4.14,6.72,1.46,2.41,2.94,4.79,4.5,7.13s3.15,4.58,4.79,6.83c.91,1.26,1.88,2.48,2.77,3.76s1.81,2.87,2.81,4.23a2.66,2.66,0,0,0,3,1.23,2.71,2.71,0,0,0,2-2.58,9.88,9.88,0,0,0-.62-2.58c-.21-.74-.42-1.48-.61-2.22-.35-1.31-.67-2.61-1-3.93-.7-2.69-1.25-5.42-1.84-8.12-1.15-5.36-2.11-10.77-3.3-16.11-.71-3.15-1.63-6.25-2.5-9.35s-1.77-6.08-2.34-9.2a23.38,23.38,0,0,1-.09-4.9,13.65,13.65,0,0,1,.6-2.46,8.47,8.47,0,0,1,.68-1.16,6.84,6.84,0,0,1,.58-.58,8.63,8.63,0,0,1,1-.57A10.2,10.2,0,0,1,223,653a12.42,12.42,0,0,1,2.42,0,9,9,0,0,1,1.13.29l.3.17c.13.12.25.24.37.37a13.72,13.72,0,0,1,1.15,2.3l-.27-.62c.5,1.27.94,2.53,1.33,3.84s.65,2.73,1,4.1c.58,2.61,1.2,5.22,2,7.79,1.67,5.36,3.5,10.69,5.3,16,.92,2.7,1.81,5.41,2.72,8.11s1.68,5.31,2.71,7.9a14.14,14.14,0,0,0,2,3.88,3.94,3.94,0,0,0,2.2,1.36,4.29,4.29,0,0,0,3.19-.68c2.3-1.37,2.41-4.44,2.59-6.83.21-2.76.31-5.53.4-8.3.17-5.41.46-10.81.62-16.22.08-2.83.15-5.66.17-8.5s.08-5.42.31-8.11c0-.13,0-.26,0-.38.07-.42.14-.84.25-1.25a26.53,26.53,0,0,1,3.68.28,14.65,14.65,0,0,1,2.44.57,6.25,6.25,0,0,1,.67.4l.23.23c.17.26.32.53.46.81a24.19,24.19,0,0,1,.87,3.33c.29,1.37.56,2.74.8,4.12.44,2.55.86,5.12,1.36,7.66,1.09,5.54,2.49,11,3.72,16.54s2.48,11.1,3.55,16.68q.78,4.08,1.63,8.13.44,2.09.93,4.14a11.48,11.48,0,0,0,1.54,4,3.18,3.18,0,0,0,2.46,1.49,3.1,3.1,0,0,0,1.64-.31,7.78,7.78,0,0,0,1.37-.93,21.77,21.77,0,0,0,2.69-2.93c.87-1,1.71-2.09,2.65-3.06a55.15,55.15,0,0,1,6-5.52,21.69,21.69,0,0,1,3.4-2.08,5.73,5.73,0,0,1,.85-.26h.32l.23.07.28.17a4.47,4.47,0,0,1,.37.37,14.18,14.18,0,0,1,1.09,2q.79,2,1.49,3.93a24.74,24.74,0,0,1,1.14,4.15,11.72,11.72,0,0,1,0,2.28,7.73,7.73,0,0,1-.33,1.31,9.65,9.65,0,0,1-.76,1.31,12,12,0,0,1-1.51,1.59c-1.09.79-2.23,1.52-3.33,2.29s-2.42,1.73-3.58,2.67c-2.14,1.72-4.14,3.64-6.12,5.54s-4,3.82-5.83,5.86a64.41,64.41,0,0,0-5.37,6.93,41.73,41.73,0,0,0-3.92,7.44,30.2,30.2,0,0,0-1.49,4.2,37.5,37.5,0,0,0-.83,4.41c-.17,1.31-.2,2.62-.25,3.94s-.1,2.75-.13,4.13c-.07,2.81-.05,5.62,0,8.42.06,2.65.15,5.29.23,7.93a3.11,3.11,0,1,0,6.23,0q-.22-6.89-.51-13.79c-.09-2.23-.2-4.46-.24-6.69a44.7,44.7,0,0,1,.17-5.72,28.2,28.2,0,0,1,.84-3.66c.34-1.12.81-2.21,1.27-3.3h0a47.63,47.63,0,0,1,2.59-4.94,43.55,43.55,0,0,1,3-4.34c.81-1,1.64-2,2.51-2.95s1.91-2,2.87-2.94c1.94-2,3.85-4,5.81-5.95,1-1,2-2,3-2.85s2-1.65,3-2.46l1.6-1.31a13.29,13.29,0,0,0,2.48-2.85,9.54,9.54,0,0,0,1.47-4.53,14.48,14.48,0,0,0-.31-4c-.23-1.3-.64-2.58-1-3.86s-.78-2.53-1.26-3.76c-.77-2-1.82-4.16-4-4.95s-4.6.19-6.65,1.13a21.61,21.61,0,0,0-3.36,2c-1.33.93-2.58,1.94-3.82,3a37.91,37.91,0,0,0-5.53,6.07l-.19.25c-.33-1.17-.59-2.37-.85-3.56-.3-1.35-.55-2.71-.81-4.06-.52-2.69-.91-5.4-1.33-8.1-.88-5.62-1.94-11.24-3-16.84-1-5.05-2.23-10-3.24-15.1q-.73-3.64-1.35-7.31c-.21-1.18-.4-2.38-.66-3.56a25.22,25.22,0,0,0-1.16-3.64,9.28,9.28,0,0,0-2.63-3.7,11,11,0,0,0-3.08-1.74,16.79,16.79,0,0,0-4.16-1,17.6,17.6,0,0,0-2-.13c-.31,0-.61,0-.92,0s-1,.09-1.4.17a9.32,9.32,0,0,0-1.81.63,4.16,4.16,0,0,0-1.25,1,6.79,6.79,0,0,0-1,1.46,13.43,13.43,0,0,0-.73,1.74,11.36,11.36,0,0,0-.47,2,64.53,64.53,0,0,0-.77,9.06c-.08,2.71-.05,5.43,0,8.13.11,4.58.32,9.14.59,13.7.15,2.4.26,4.8.39,7.2.06,1.1.12,2.21.2,3.32,0,.44.06.89.09,1.33-.6-1.95-1.09-3.94-1.64-5.89-.77-2.7-1.59-5.4-2.36-8.09-1.55-5.47-3.47-10.81-5.34-16.16-.88-2.53-1.72-5.06-2.49-7.63a75.25,75.25,0,0,0-2.91-8.46,17.44,17.44,0,0,0-2.51-4.45c-1.68-2-4.32-2.27-6.72-2.39a11.72,11.72,0,0,0-4.32.59,8.11,8.11,0,0,0-2,1.07c-.33.24-.65.51-1,.78a8.12,8.12,0,0,0-1.08,1.31,11.12,11.12,0,0,0-1.85,4.44,18.2,18.2,0,0,0-.37,2.47,27.16,27.16,0,0,0-.05,4c.1,1.56.35,3.09.61,4.64.47,2.7,1.12,5.4,1.74,8.07s1.41,5.51,2.08,8.27c.62,2.59,1.21,5.19,1.84,7.78s1.16,4.9,1.72,7.36l0,0c-2.7-4.76-5.5-9.47-8.47-14.08a36.65,36.65,0,0,0-5.26-6.65,15.53,15.53,0,0,0-3.16-2.28,6.65,6.65,0,0,0-2.76-.85,5.71,5.71,0,0,0-2,.29,14.14,14.14,0,0,0-2.87,1.33,32.27,32.27,0,0,0-3.26,2,12.07,12.07,0,0,0-3.44,3.69,9.49,9.49,0,0,0-1.28,3.71,9.16,9.16,0,0,0,.7,4.55c.57,1.43,1.16,2.86,1.87,4.24a62.59,62.59,0,0,0,4.6,7.12c1.56,2.21,3.16,4.39,4.76,6.58s3.39,4.41,4.82,6.79c.72,1.19,1.41,2.4,2,3.65s1.25,2.61,1.83,3.94l.35.79-.41-.2c-1.21-.6-2.44-1.19-3.65-1.81-2.53-1.27-5-2.6-7.53-3.89s-4.85-2.4-7.27-3.58a31.27,31.27,0,0,1-3.26-1.84c-.53-.34-1-.7-1.59-1a3.54,3.54,0,0,0-2.18-.59,2.67,2.67,0,0,0-1.41.53,4.69,4.69,0,0,0-1.07,1.15,8.65,8.65,0,0,0-1,2c-.2.48-.37.94-.53,1.43-.32,1-.63,2-.94,3a38.09,38.09,0,0,0-1.34,6.18V725a19.4,19.4,0,0,0-.19,2.61,13.45,13.45,0,0,0,.14,2Zm16-46.61L194,683l-.07.08Zm54,21.25.18-.22a2.15,2.15,0,0,1-.18.22Zm.1-.44h0Zm49.12,8,.18-.08-.18.08Zm3,2.57.12.28c0-.09-.08-.18-.12-.28Zm-32.89-56.08-.08-.18.08.18Zm-.08-.19h0Zm0,0-.19-.46.19.46Zm-80.46,59-.25-.19.25.19Zm-.25-.19-.13-.1-.09-.07.22.17Zm-8.5,8.2c0,.15,0,.31-.06.47l.06-.47Z"/><path class="cls-19" d="M86,643.3q10.18.85,20.31,2.16c5.54.76,11.06,1.72,16.63,2.28,5.74.57,11.49.82,17.24,1l8.6.24c2.68.08,5.37.15,8.06.05,5.55-.21,11.1-.65,16.66-.77,4.23-.09,8.48-.13,12.71-.2l6.35-.08c2.42,0,4.82-.12,7.24-.2A3,3,0,0,0,202,642.6a3.19,3.19,0,0,0-2.15-.89,180.08,180.08,0,0,0-18.33,0,168.27,168.27,0,0,0-16.76,1.61l-3.68.53c-2.77.35-5.53.63-8.32.75s-5.33.13-8,.1c-3,0-5.92-.12-8.89-.27s-5.65-.39-8.48-.63c-5.64-.47-11.27-1.25-16.9-1.89s-11.25-1-16.87-1.53L86,639.66a1.82,1.82,0,0,0-1.82,1.82A1.85,1.85,0,0,0,86,643.3Z"/><path class="cls-19" d="M80.83,643.94l1.38,1a7,7,0,0,0,3.45.9c8.3,1,16.61,1.62,25,2.12,7.7.48,15.39.9,23.1,1s15.49-.25,23.22-.56c8.06-.32,16.13-.62,24.2-.84,7.78-.22,15.55-.18,23.33-.16s15.4-.21,23.08.11,15.33,1.21,23,1.81c7.85.59,15.67,1.5,23.48,2.42,8.42,1,16.86,1.31,25.32,1.72,8.29.4,16.51,1.35,24.75,2.32,15.8,2.16,31.28,6.08,46.75,9.77,8.23,2,16.46,3.86,24.72,5.72,7.53,1.7,15.08,3.31,22.57,5.15,8,2,16,3.81,24.12,5.28,7.95,1.45,15.91,2.76,23.83,4.39s16.08,3.42,24,5.69,15.73,4.62,23.61,6.85q17.56,5,35.09,10.07c10.78,3.16,21.49,6.59,31.91,10.7,7.66,3.16,15.3,6.36,22.94,9.55s15.26,6.55,23.07,9.41a214.91,214.91,0,0,0,22.67,7.12c8,2,16,3.86,24.21,5.09,16.46,2.46,33.38,3.88,50,2.1,8.55-.92,17.06-2.11,25.54-3.42,7.65-1.18,15.31-2.29,22.93-3.66l11.57-2.11c3.81-.71,7.57-1.62,11.34-2.52,7.88-1.89,15.77-3.8,23.65-5.68,7.56-1.79,15-3.78,22.37-6.27,7.19-2.43,14.57-4.3,21.76-6.74,1.46-.5,2.89-1.07,4.35-1.58,1.3-.46,2.63-.84,3.93-1.29a34.1,34.1,0,0,0,4-1.66,19.73,19.73,0,0,0,3.31-2.2,4.91,4.91,0,0,0,1.38-5,5.4,5.4,0,0,0-3.76-3.6c-2.75-.88-5.39-.21-8.11.38-1.21.27-2.45.47-3.67.73-1.59.32-3.15.81-4.7,1.27-3.49,1-7,1.89-10.54,2.82q-5.8,1.54-11.51,3.34c-3.61,1.12-7.19,2.24-10.84,3.24s-7.53,1.88-11.31,2.77c-7.88,1.86-15.75,3.79-23.61,5.71-2.89.72-5.77,1.46-8.69,2.08s-5.74,1.13-8.62,1.69c-5.82,1.13-11.64,2.23-17.48,3.26C744.9,736.35,733,738.46,721,740l1.8-.24a142.07,142.07,0,0,1-18.31,1c-6.64-.1-13.23-.48-19.82-1.21-5-.66-10.11-1.36-15.08-2.44-5.78-1.26-11.47-2.84-17.18-4.35a261.8,261.8,0,0,1-30.08-10.39q-13.22-5.42-26.48-10.77l1.62.65c-8.1-3.28-16.19-6.54-24.5-9.29-7.58-2.51-15.25-4.8-23-7-15.8-4.44-31.69-8.56-47.56-12.75-8.11-2.15-16.24-4.16-24.46-5.87-7.82-1.64-15.7-3.07-23.59-4.44s-15.57-2.91-23.21-5c-8.07-2.18-16.11-4.44-24.22-6.46-15.53-3.89-31.07-7.77-46.67-11.44-4.06-1-8.14-1.84-12.24-2.7-3.93-.82-7.86-1.7-11.83-2.38-8.51-1.45-17.12-2.24-25.72-3.11-12-1.2-24-1.42-36-2.89-8-1.05-16-2.1-24-2.8-7.67-.65-15.3-1.4-23-1.67s-15.4,0-23.08,0-15.55.16-23.33.49c-8.07.33-16.13.78-24.2,1.13-7.74.34-15.47.8-23.22.54s-15.39-1.19-23.1-1.79c-8.33-.65-16.66-1.25-25-2.22a6.67,6.67,0,0,0-4.83,1.92,6.36,6.36,0,0,0,0,9.27Zm193-5,.58.07-.58-.07Zm.77.1,1,.13-1-.13Zm306.21,80.45,1.34.53-1.34-.53Z"/><path class="cls-19" d="M299.87,651.31c5.75.19,11.5.46,17.24.51,5.53,0,11,.06,16.57,0s11.18-.05,16.78-.29c2.79-.12,5.59-.24,8.37-.52,3-.3,6-.64,9.06-1,5.54-.6,11.08-.9,16.64-1.17s11.29-.56,16.93-.79c11.71-.46,23.42-1,35.11-1.79,5.66-.4,11.34-.73,17-1.12,5.86-.42,11.72-.89,17.59-1.14,11.69-.5,23.37-1.26,35-2.5,11.1-1.19,22.18-2.71,33.25-4.21l-1.65.23c22.88-3,45.81-5.75,68.81-7.65q9.31-.78,18.64-1.43c5.44-.36,10.88-.61,16.32-.9,6-.33,12-.6,18-.74s11.89-.23,17.84-.4c11.58-.34,23.16-.76,34.76-.9,5.76-.06,11.51-.12,17.26.07s11.51.52,17.23,1.1c.92.09,1.83.21,2.75.33,5.29.73,10.57,1.52,15.83,2.39s10.79,1.87,16.2,2.76c11.46,1.9,22.87,4,34.38,5.55,4.68.61,9.36,1,14,1.46,2.13.2,4.26.43,6.38.67l3.31.36c.52.05,1,.09,1.54.12a16.34,16.34,0,0,0,3.09-.36,5.52,5.52,0,0,0,2.43-1.41,5.42,5.42,0,0,0,1.41-2.43,5.49,5.49,0,0,0-2.52-6.2,12.67,12.67,0,0,0-3.24-1.25c-.7-.13-1.4-.22-2.1-.33-1.94-.29-3.87-.56-5.81-.82-2.48-.33-5-.64-7.45-1-10.62-1.5-21.18-3.42-31.73-5.36-5.42-1-10.84-1.91-16.27-2.86-5.71-1-11.41-2.05-17.14-2.94-6-.93-12.12-1.75-18.21-2.36-2.79-.28-5.61-.42-8.42-.54s-5.57-.29-8.35-.33c-11.7-.21-23.42,0-35.12.48q-8.76.33-17.52.61c-5.7.2-11.39.24-17.09.47-11.87.47-23.72,1.27-35.56,2.19-23.31,1.82-46.57,4.46-69.76,7.39-7.92,1-15.82,2.09-23.73,3.18-11.44,1.5-22.85,3.07-34.35,4-5.47.46-10.94.92-16.41,1.16-5.77.26-11.54.53-17.3,1-6.12.46-12.25.84-18.39,1.26-5.83.4-11.66.89-17.49,1.25-11.44.71-22.88,1.39-34.3,2.3q-9.79.78-19.51,2.09c-3.22.44-6.41,1.07-9.6,1.64-2.92.53-5.84,1-8.77,1.42q-6.23.78-12.48,1.38c-4.37.42-8.7,1-13.06,1.45s-8.73.85-13.1,1.06-8.89,0-13.33-.12a2.47,2.47,0,0,0,0,4.95Z"/><path class="cls-19" d="M105.14,639.79a3.18,3.18,0,0,0,3.11-3.11q.76-7.12,1.71-14.2c.29-2,.57-4,1-6a58.59,58.59,0,0,1,1.69-6.36c.59-1.88,1.35-3.7,2.05-5.53s1.42-3.59,2.15-5.38a113.22,113.22,0,0,1,7.62-15.05c1.56-2.52,3.24-5,4.86-7.44s3.1-4.69,4.75-7c2.41-3.07,4.91-6.06,7.45-9a66.52,66.52,0,0,1,9.06-8.42c5.61-4.27,11.28-8.49,17.13-12.42,3-2,6-4,9.12-5.83,1.63-.92,3.26-1.79,4.93-2.66s3.5-1.57,5.25-2.31l-1.23.52a130.31,130.31,0,0,1,14.35-4.85,117.43,117.43,0,0,1,13.32-2.69c6-.65,12-1,17.93-1.2q4.51-.14,9-.05c2.9.06,5.76.28,8.64.59,6.55,1,13,2.18,19.47,3.74a142.26,142.26,0,0,1,18.27,5.62,131,131,0,0,1,13.32,7c4.36,2.61,8.51,5.63,12.6,8.65A163.92,163.92,0,0,1,338,572.21c1.58,2.09,3.11,4.22,4.64,6.34,1.67,2.31,3.39,4.63,4.88,7.07s2.89,4.89,4.23,7.39,2.4,4.83,3.47,7.31a159.25,159.25,0,0,1,5.5,15,110.52,110.52,0,0,1,3.46,15.95c.21,1.77.39,3.54.5,5.32.25,3.78.67,8.11,4.43,10.14a6,6,0,0,0,6,0c2.17-1.27,3.62-4.22,2.73-6.7l0-.08c-.48-4.37-1.38-8.71-2.28-13a136.4,136.4,0,0,0-3.5-13.91c-1.54-4.76-3.37-9.38-5.27-14a126.88,126.88,0,0,0-7-14.63c-1.27-2.21-2.57-4.39-4-6.53s-2.81-4-4.22-5.92c-3.08-4.27-6.24-8.48-9.66-12.49-3.26-3.83-6.68-7.52-10.29-11a136.82,136.82,0,0,0-11-9.75,157.5,157.5,0,0,0-26.35-16.64,96.67,96.67,0,0,0-14.4-5.6c-4.82-1.5-9.68-2.94-14.63-4-5.29-1.11-10.58-2.23-15.94-2.95a97.46,97.46,0,0,0-14.86-.84c-5.13.1-10.22.47-15.32,1A99.78,99.78,0,0,0,204,512.36a126.36,126.36,0,0,0-13.94,4.4,123.2,123.2,0,0,0-14.73,6.6,129.44,129.44,0,0,0-12.55,8.18c-4,2.84-7.91,5.83-11.84,8.76a136.38,136.38,0,0,0-12.49,10.15,60.4,60.4,0,0,0-5,5.57c-1.74,2.12-3.42,4.29-5.06,6.47-2.87,3.83-5.24,7.95-7.77,12-1.4,2.25-2.78,4.5-4.11,6.8-1.2,2.09-2.2,4.3-3.21,6.47a117.28,117.28,0,0,0-4.48,11.21,101,101,0,0,0-3.47,11.36,119.93,119.93,0,0,0-1.73,12.14c-.56,4.74-1.11,9.48-1.62,14.22a2.3,2.3,0,0,0,0,.24,3.18,3.18,0,0,0,3.12,2.87ZM214.09,522l.54-.08-.54.08Z"/></g></g></g></svg>